<?xml version="1.0" encoding="utf-8"?>
<!-- Generator: Adobe Illustrator 21.0.2, SVG Export Plug-In . SVG Version: 6.00 Build 0)  -->
<svg version="1.1" id="Calque_1" xmlns="http://www.w3.org/2000/svg" xmlns:xlink="http://www.w3.org/1999/xlink" x="0px" y="0px"
	 viewBox="0 0 74 74" style="enable-background:new 0 0 74 74;" xml:space="preserve">
<style type="text/css">
	.st0{fill:#F4F4F4;}
</style>
<rect x="10.8" y="10.8" transform="matrix(0.7071 0.7071 -0.7071 0.7071 37.0108 -15.3304)" class="st0" width="52.3" height="52.3"/>
<rect x="30" y="53.3" width="4.4" height="4.4"/>
<rect x="26.9" y="50.1" width="4.4" height="4.4"/>
<rect x="23.1" y="46.4" width="5" height="5"/>
<rect x="45.7" y="46.4" width="5" height="5"/>
<rect x="42.6" y="50.1" width="4.4" height="4.4"/>
<rect x="39.4" y="53.3" width="4.4" height="4.4"/>
<rect x="34.7" y="54.8" transform="matrix(0.7071 -0.7071 0.7071 0.7071 -29.5113 42.8091)" width="4.4" height="4.4"/>
<rect x="34.7" y="49.8" transform="matrix(0.7071 -0.7071 0.7071 0.7071 -25.945 41.3319)" width="4.4" height="4.4"/>
<rect x="34.7" y="45.4" transform="matrix(0.7071 -0.7071 0.7071 0.7071 -22.844 40.0474)" width="4.4" height="4.4"/>
<rect x="34.7" y="41" transform="matrix(0.7071 -0.7071 0.7071 0.7071 -19.7429 38.7629)" width="4.4" height="4.4"/>
<rect x="34.7" y="36.6" transform="matrix(0.7071 -0.7071 0.7071 0.7071 -16.6419 37.4784)" width="4.4" height="4.4"/>
<rect x="34.7" y="32.2" transform="matrix(0.7071 -0.7071 0.7071 0.7071 -13.5409 36.1939)" width="4.4" height="4.4"/>
<rect x="34.7" y="27.9" transform="matrix(0.7071 -0.7071 0.7071 0.7071 -10.4398 34.9094)" width="4.4" height="4.4"/>
<rect x="34.7" y="23.5" transform="matrix(0.7071 -0.7071 0.7071 0.7071 -7.3388 33.6249)" width="4.4" height="4.4"/>
<rect x="34.7" y="19.1" transform="matrix(0.7071 -0.7071 0.7071 0.7071 -4.2378 32.3404)" width="4.4" height="4.4"/>
<rect x="34.7" y="14.7" transform="matrix(0.7071 -0.7071 0.7071 0.7071 -1.1367 31.0559)" width="4.4" height="4.4"/>
</svg>
