<?xml version="1.0" encoding="utf-8"?>
<!-- Generator: Adobe Illustrator 16.0.4, SVG Export Plug-In . SVG Version: 6.00 Build 0)  -->
<!DOCTYPE svg PUBLIC "-//W3C//DTD SVG 1.1//EN" "http://www.w3.org/Graphics/SVG/1.1/DTD/svg11.dtd">
<svg version="1.1" id="Calque_1" xmlns="http://www.w3.org/2000/svg" xmlns:xlink="http://www.w3.org/1999/xlink" x="0px" y="0px"
	 width="59.875px" height="67px" viewBox="0 0 59.875 67" enable-background="new 0 0 59.875 67" xml:space="preserve">
<path fill="none" stroke="#7B7B7B" stroke-width="2" stroke-miterlimit="10" d="M46.625,11.032c0,0.696-0.564,1.26-1.26,1.26h-4.147
	c-0.695,0-1.26-0.564-1.26-1.26V2.44c0-0.696,0.564-1.26,1.26-1.26h4.147c0.695,0,1.26,0.564,1.26,1.26V11.032z"/>
<path fill="none" stroke="#7B7B7B" stroke-width="2" stroke-miterlimit="10" d="M19.792,11.032c0,0.696-0.564,1.26-1.26,1.26h-4.147
	c-0.695,0-1.26-0.564-1.26-1.26V2.44c0-0.696,0.564-1.26,1.26-1.26h4.147c0.695,0,1.26,0.564,1.26,1.26V11.032z"/>
<path fill="none" stroke="#7B7B7B" stroke-width="2" stroke-miterlimit="10" d="M20.292,28.948c0,0.696-0.564,1.26-1.26,1.26h-1.48
	c-0.695,0-1.26-0.564-1.26-1.26V17.357c0-0.696,0.564-1.26,1.26-1.26h1.48c0.695,0,1.26,0.564,1.26,1.26V28.948z"/>
<path fill="none" stroke="#7B7B7B" stroke-width="2" stroke-miterlimit="10" d="M43.626,28.948c0,0.696-0.564,1.26-1.26,1.26h-1.48
	c-0.695,0-1.26-0.564-1.26-1.26V17.357c0-0.696,0.564-1.26,1.26-1.26h1.48c0.695,0,1.26,0.564,1.26,1.26V28.948z"/>
<g>
	<path fill="none" stroke="#7B7B7B" stroke-width="2" stroke-miterlimit="10" d="M41.543,38.708v-0.852
		c0-0.696-0.564-1.26-1.26-1.26h-1.48c-0.695,0-1.26,0.564-1.26,1.26v0.852"/>
	<path fill="none" stroke="#7B7B7B" stroke-width="2" stroke-miterlimit="10" d="M37.612,49.792c0.152,0.525,0.617,0.916,1.19,0.916
		h1.48c0.573,0,1.038-0.391,1.19-0.916"/>
	<path fill="none" stroke="#7B7B7B" stroke-width="2" stroke-miterlimit="10" d="M22.959,38.708v-0.852
		c0-0.696-0.564-1.26-1.26-1.26h-1.48c-0.695,0-1.26,0.564-1.26,1.26v0.852"/>
	<path fill="none" stroke="#7B7B7B" stroke-width="2" stroke-miterlimit="10" d="M19.028,49.792c0.152,0.525,0.617,0.916,1.19,0.916
		h1.48c0.573,0,1.038-0.391,1.19-0.916"/>
	<path fill="none" stroke="#7B7B7B" stroke-width="2" stroke-miterlimit="10" d="M43.792,38.708h-2.249v10.74
		c0,0.122-0.037,0.232-0.069,0.344l2.318-2c0.782,0,1.417-1.635,1.417-2.418v-5.248C45.209,39.343,44.574,38.708,43.792,38.708z"/>
	<path fill="none" stroke="#7B7B7B" stroke-width="2" stroke-miterlimit="10" d="M37.543,38.708H22.959v10.74
		c0,0.122-0.037,0.232-0.069,0.344h14.723c-0.032-0.111-0.069-0.222-0.069-0.344V38.708z"/>
	<path fill="none" stroke="#7B7B7B" stroke-width="2" stroke-miterlimit="10" d="M18.959,38.708h-3.333
		c-0.782,0-1.417,0.634-1.417,1.417v3.248c0,0.783,0.635,3.418,1.417,3.418l3.402,3c-0.032-0.111-0.069-0.222-0.069-0.344V38.708z"
		/>
</g>
<line fill="none" stroke="#7B7B7B" stroke-width="2" stroke-miterlimit="10" x1="39.626" y1="23.042" x2="20.376" y2="23.042"/>
<path fill="none" stroke="#7B7B7B" stroke-width="2" stroke-miterlimit="10" d="M46.48,7.208h3.396c0.782,0,1.417,0.635,1.417,1.417
	l1.749,12.999c0,0.783-0.635,1.417-1.417,1.417h-7.833"/>
<line fill="none" stroke="#7B7B7B" stroke-width="2" stroke-miterlimit="10" x1="19.86" y1="7.208" x2="40.253" y2="7.208"/>
<path fill="none" stroke="#7B7B7B" stroke-width="2" stroke-miterlimit="10" d="M16.209,23.042h-8.75
	c-0.782,0-1.417-0.635-1.417-1.417L8.459,8.626c0-0.783,0.635-1.417,1.417-1.417h3.231"/>
<path fill="none" stroke="#7B7B7B" stroke-width="2" stroke-miterlimit="10" d="M49.875,23.042v41.541
	c0,0.782-0.635,1.417-1.417,1.417H11.417C10.635,66,10,65.365,10,64.583V23.042"/>
<path fill="none" stroke="#7B7B7B" stroke-width="2" stroke-miterlimit="10" d="M44.5,47.167v8.791c0,0.782-0.635,1.417-1.417,1.417
	H16.667c-0.782,0-1.417-0.635-1.417-1.417v-9.791"/>
<path fill="none" stroke="#7B7B7B" stroke-width="2" stroke-miterlimit="10" d="M10,33.417v25.541c0,0.782-0.635,1.417-1.417,1.417
	H5.167c-0.782,0-1.417-0.635-1.417-1.417V36.375"/>
<path fill="none" stroke="#7B7B7B" stroke-width="2" stroke-miterlimit="10" d="M9.75,34.583C9.75,35.366,9.115,36,8.333,36H2.417
	C1.635,36,1,35.365,1,34.583v-1.04c0-0.783,0.635-2.417,1.417-2.417l5.916-3c0.782,0,1.417,0.635,1.417,1.417V34.583z"/>
<path fill="none" stroke="#7B7B7B" stroke-width="2" stroke-miterlimit="10" d="M58.875,34.833c0,0.783-0.635,1.417-1.417,1.417
	h-6.291c-0.782,0-1.417-0.635-1.417-1.417v-5.165c0-0.783,0.635-1.417,1.417-1.417l6.291,3c0.782,0,1.417,1.635,1.417,2.417V34.833z
	"/>
<path fill="none" stroke="#7B7B7B" stroke-width="2" stroke-miterlimit="10" d="M49.875,34.667v24.166
	c0,0.782,0.635,1.417,1.417,1.417h3.666c0.782,0,1.417-0.635,1.417-1.417V36.5"/>
<path fill="none" stroke="#7B7B7B" stroke-width="2" stroke-miterlimit="10" d="M26.125,7.208c0-1.979,1.604-3.583,3.584-3.583
	c1.979,0,3.583,1.604,3.583,3.583"/>
<path fill="none" stroke="#7B7B7B" stroke-width="2" stroke-miterlimit="10" d="M23.5,7.208C23.5,3.78,26.28,1,29.709,1
	c3.428,0,6.208,2.78,6.208,6.208"/>
<path fill="none" stroke="#7B7B7B" stroke-width="2" stroke-miterlimit="10" d="M31.169,19.186c-0.553,0.554-1.451,0.554-2.004,0
	l-3.477-3.476c-0.553-0.553-0.553-1.451,0.001-2.004l3.476-3.476c0.553-0.553,1.451-0.553,2.004,0l3.477,3.476
	c0.553,0.553,0.553,1.451-0.001,2.004L31.169,19.186z"/>
<line fill="none" stroke="#7B7B7B" stroke-width="2" stroke-miterlimit="10" x1="10" y1="61.5" x2="49.875" y2="61.5"/>
<path fill="none" stroke="#7B7B7B" stroke-miterlimit="10" d="M3.75,36"/>
</svg>
