<?xml version="1.0" encoding="utf-8"?>
<!-- Generator: Adobe Illustrator 16.0.4, SVG Export Plug-In . SVG Version: 6.00 Build 0)  -->
<!DOCTYPE svg PUBLIC "-//W3C//DTD SVG 1.1//EN" "http://www.w3.org/Graphics/SVG/1.1/DTD/svg11.dtd">
<svg version="1.1" id="Calque_1" xmlns="http://www.w3.org/2000/svg" xmlns:xlink="http://www.w3.org/1999/xlink" x="0px" y="0px"
	 width="135.356px" height="150px" viewBox="320.816 250.404 135.356 150" enable-background="new 320.816 250.404 135.356 150"
	 xml:space="preserve">
<g>
	<path fill="#4C4C4C" d="M411.192,400.404c-4.815,0-9.542-1.344-13.727-3.953c-5.902-3.68-10.017-9.437-11.588-16.211
		c-0.28-1.212-0.472-2.422-0.577-3.625h-17.315v21.645c0,1.18-0.955,2.134-2.134,2.134h-8.755c-1.179,0-2.134-0.954-2.134-2.134
		v-21.645h-8.231c-1.179,0-2.134-0.956-2.134-2.135v-32.212c-2.521-0.484-7.421-1.211-11.299-0.502
		c-1.27,0.231-2.13,0.632-3.123,1.095c-1.61,0.749-3.436,1.597-6.803,1.597c-0.894,0-1.514-0.524-1.955-0.98
		c-0.385-0.397-0.6-0.928-0.6-1.482v-9.323c0-0.822,0.473-1.572,1.215-1.928l0.548-0.261c0.288-0.136,0.601-0.207,0.918-0.207
		h28.413v-36.328c-0.195,0.006-0.394,0.012-0.59,0.012c-9.78,0-11.799-8.942-12.56-12.308c-0.005-0.022-0.011-0.045-0.016-0.068
		c-0.159-0.297-0.248-0.639-0.248-0.999c0-0.009,0-0.02,0-0.029c-0.001-0.055-0.001-0.108,0.001-0.163
		c-0.034-0.643,0.225-1.256,0.683-1.679l14.926-27.202c0.376-0.683,1.092-1.108,1.871-1.108h82.968c0.788,0,1.511,0.434,1.881,1.127
		l14.771,27.615c0.477,0.513,0.693,1.251,0.508,1.981l-0.043,0.181c-2.713,10.993-9.547,12.635-13.381,12.635
		c-0.181,0-0.358-0.003-0.538-0.011v36.343h5.185c1.179,0,2.134,0.954,2.134,2.134v42.07c0,1.18-0.955,2.134-2.134,2.134h-10.151
		c-0.958,10.924-8.812,20.499-20.06,23.106c-0.056,0.013-0.111,0.027-0.169,0.039c-0.003,0.002-0.009,0.002-0.014,0.003
		c-0.014,0.003-0.03,0.008-0.044,0.011C415,400.195,413.089,400.404,411.192,400.404z M401.667,393.91
		c3.799,1.868,8.015,2.581,12.207,2.058l-3.658-15.771L401.667,393.91z M359.227,396.125h4.49v-19.51h-4.49V396.125z
		 M414.193,378.47l3.843,16.57c4.339-1.421,7.975-4.125,10.576-7.579L414.193,378.47z M390.561,381.159
		c1.373,4.199,3.96,7.836,7.476,10.506l8.921-14.309L390.561,381.159z M416.81,375.071l14.028,8.746
		c1.824-3.767,2.577-8.079,1.967-12.455L416.81,375.071z M391.829,364.526c-1.906,3.753-2.738,8.069-2.199,12.467l16.176-3.752
		L391.829,364.526z M437.202,372.347h7.998v-37.802h-96.337v5.542c0.066,0.297,0.07,0.612,0,0.926v31.332h36.416
		c0.86-11.025,8.747-20.725,20.079-23.354c13.981-3.245,28,5.496,31.247,19.48l0,0C436.904,369.769,437.101,371.061,437.202,372.347
		z M424.9,357.421l-8.302,13.318l15.206-3.528C430.435,363.26,427.997,359.912,424.9,357.421z M408.239,352.795l3.937,16.972
		l9.156-14.687C417.416,353.025,412.855,352.145,408.239,352.795z M394.122,360.926l13.588,8.472l-3.618-15.603
		C400.045,355.199,396.63,357.722,394.122,360.926z M325.084,334.546v5.538c1.347-0.188,2.237-0.603,3.291-1.09
		c1.099-0.513,2.348-1.093,4.155-1.424c4.174-0.764,9.088-0.168,12.069,0.356v-3.379h-19.515V334.546z M435.441,330.276h2.441
		v-37.17c-0.859-0.313-1.674-0.709-2.441-1.182V330.276z M362.887,330.276h68.288v-41.728c-2.567,3.322-6.632,5.396-11.118,5.396
		c-4.681,0-8.902-2.254-11.44-5.831c-2.54,3.577-6.763,5.831-11.441,5.831c-4.683,0-8.907-2.254-11.445-5.831
		c-2.542,3.578-6.768,5.835-11.452,5.835c-4.645,0-8.839-2.213-11.39-5.729v42.057H362.887z M356.178,330.276h2.44v-38.308
		c-0.768,0.458-1.587,0.844-2.44,1.15V330.276z M343.428,282.72c1.064,3.759,2.892,6.972,7.893,6.972
		c3.073,0,5.857-1.367,7.648-3.568c0.064-0.099,0.137-0.19,0.216-0.275c0.692-0.92,1.216-1.975,1.526-3.125h-17.283V282.72z
		 M364.913,282.72c1.103,4.104,4.933,6.962,9.363,6.962c4.42,0,8.243-2.855,9.35-6.962H364.913z M387.831,282.72
		c1.103,4.104,4.925,6.959,9.343,6.959c4.414,0,8.234-2.854,9.339-6.959H387.831z M433.602,282.72
		c1.117,4.167,4.75,6.957,9.086,6.957c3.951,0,6.801-2.339,8.5-6.957H433.602z M410.72,282.72c1.104,4.104,4.923,6.957,9.337,6.957
		c4.413,0,8.233-2.854,9.337-6.957H410.72z M344.195,278.451H450.39l-12.721-23.779h-80.423L344.195,278.451z"/>
</g>
</svg>
