<?xml version="1.0" encoding="utf-8"?>
<!-- Generator: Adobe Illustrator 16.0.4, SVG Export Plug-In . SVG Version: 6.00 Build 0)  -->
<!DOCTYPE svg PUBLIC "-//W3C//DTD SVG 1.1//EN" "http://www.w3.org/Graphics/SVG/1.1/DTD/svg11.dtd">
<svg version="1.1" id="Calque_1" xmlns="http://www.w3.org/2000/svg" xmlns:xlink="http://www.w3.org/1999/xlink" x="0px" y="0px"
	 width="849.857px" height="201.586px" viewBox="0 0 849.857 201.586" enable-background="new 0 0 849.857 201.586"
	 xml:space="preserve">
<g>
	<circle fill="#FFFFFF" cx="742.246" cy="6.625" r="3.099"/>
</g>
<g>
	<g>
		<path fill="#FFFFFF" stroke="#000000" stroke-miterlimit="10" d="M473.37,129.848"/>
	</g>
	<g>
		<circle fill="#FFFFFF" cx="467.587" cy="61.97" r="3.097"/>
		<path fill="#FFFFFF" d="M467.587,65.909c-2.173,0-3.938-1.766-3.938-3.939c0-2.173,1.766-3.938,3.938-3.938
			c2.17,0,3.938,1.766,3.938,3.938C471.525,64.144,469.757,65.909,467.587,65.909z M467.587,59.715
			c-1.246,0-2.256,1.009-2.256,2.255c0,1.243,1.01,2.256,2.256,2.256c1.242,0,2.255-1.013,2.255-2.256
			C469.842,60.724,468.829,59.715,467.587,59.715z"/>
	</g>
	<g>
		<path fill="#FFFFFF" d="M806.921,161.979l-55.533-44.549c-0.02,0.629-0.263,1.197-0.65,1.637l54.973,44.1
			C806.049,162.711,806.453,162.303,806.921,161.979z"/>
		<path fill="#FFFFFF" d="M745.276,149.692l35.796,32.17c0.253-0.518,0.671-0.943,1.184-1.195l-36.194-32.529
			C745.92,148.719,745.645,149.243,745.276,149.692z"/>
		<path fill="#FFFFFF" d="M781.674,184.94c-0.114-0.102-0.22-0.211-0.315-0.332c-0.286-0.357-0.453-0.783-0.52-1.223l-57.768,11.154
			c0.042,0.277,0.085,0.559,0.085,0.85c0,0.295-0.043,0.582-0.089,0.867L781.674,184.94z"/>
		<path fill="#FFFFFF" d="M642.43,31.168c0,0.181-0.02,0.354-0.052,0.525l23.825,6.296l-16.658,25.806
			c0.489,0.315,0.9,0.736,1.21,1.232l17.161-26.587l51.21,13.532l-9.61,18.825c0.585,0.089,1.108,0.361,1.499,0.77l9.774-19.154
			l45.884,12.121l1.936,4.541l-52.291,13.092l-4.947-7.474c-0.296,0.497-0.746,0.885-1.292,1.099l4.507,6.809l-47.889,11.993
			c0.654,0.24,1.184,0.733,1.47,1.368l47.405-11.872l7.447,11.247c0.447-0.345,0.963-0.602,1.531-0.729l-7.246-10.951l51.973-13.013
			l10.311,24.2l-29.347,20.345c0.474,0.318,0.829,0.792,1.013,1.347l29.008-20.111l27.682,64.988
			c0.52-0.217,1.086-0.332,1.671-0.371l-27.942-65.596l62.227-43.138c-0.389-0.411-0.678-0.904-0.858-1.453l-62.042,43.01
			L770.93,70.229l5.675-1.42c-0.178-0.526-0.293-1.078-0.299-1.66l-6.047,1.512l-1.525-3.58l7.568,1.999
			c0.004-0.582,0.122-1.134,0.3-1.66l-8.703-2.302l-13.653-32.055l88.646,17.858c0.104-0.582,0.335-1.117,0.667-1.581
			l-90.116-18.154l-8.42-19.77c-0.404,0.401-0.9,0.704-1.446,0.901l7.864,18.463l-16.859-3.396l7.568-14.831
			c-0.602-0.013-1.164-0.171-1.67-0.428l-7.611,14.913l-48.201-9.712c0.129,0.392,0.217,0.803,0.217,1.236
			c0,0.175-0.029,0.346-0.053,0.517l47.241,9.515l-12.164,23.842l-51.032-13.482l10.774-16.688c-0.543-0.19-1.036-0.486-1.44-0.878
			L667.163,36.5l-25.095-6.631C642.292,30.254,642.43,30.694,642.43,31.168z M733.789,26.939l18.453,3.719l13.595,31.917
			l-44.266-11.697L733.789,26.939z"/>
		<path fill="#FFFFFF" d="M717.64,190.065l-16.866-31.092l38.102-9.764c-0.286-0.477-0.467-1.02-0.526-1.602l-38.403,9.84
			l-22.32-41.145l44.525-15.656c-0.312-0.46-0.52-0.993-0.615-1.564l-44.719,15.731l-8.86-16.333
			c-0.322,0.479-0.806,0.835-1.364,1.016l8.616,15.883l-31.742,11.168c0.428,0.4,0.775,0.871,1.055,1.395l31.497-11.074
			l22.247,41.012l-77.326,19.814l-19.299-42.928l32.87-4.596c0.03-0.609,0.148-1.193,0.368-1.736l-33.955,4.738l-7.986-17.76
			l13.017-26.769c-0.599-0.014-1.161-0.168-1.664-0.421l-12.25,25.193l-12.831-28.54c-0.418,0.378-0.954,0.617-1.549,0.66
			l13.42,29.853l-9.202,18.917c0.549,0.186,1.042,0.475,1.457,0.859l8.643-17.779l7.207,16.029l-15.481,2.16
			c0.371,0.461,0.647,0.994,0.782,1.588l15.416-2.152l19.381,43.107l-23.362,5.99l-50.361-19.348l-8.238-73.858
			c-0.467,0.364-1.007,0.641-1.608,0.766l8.075,72.411l-37.014-14.215l-0.604,1.57l37.828,14.533l2.86,25.654
			c0.477-0.139,0.974-0.238,1.493-0.238c0.062,0,0.118,0.018,0.177,0.018l-2.762-24.758l47.337,18.186l-39.719,10.178
			c0.181,0.527,0.296,1.078,0.303,1.66l42.128-10.797l29.896,11.484c0.171-0.555,0.453-1.059,0.832-1.482l-27.909-10.721
			l21.35-5.475l7.068,15.723c0.444-0.346,0.954-0.605,1.516-0.736l-6.927-15.41l77.452-19.848l16.822,31.01
			C716.452,190.208,717.031,190.084,717.64,190.065z"/>
		<path fill="#FFFFFF" d="M785.728,184.155l0.339-0.066l-0.246-0.223C785.784,183.959,785.774,184.065,785.728,184.155z"/>
		<path fill="#FFFFFF" d="M450.126,98.539l4.133-8.019l10.03,7.624l-13.118,2.157l-0.874,1.851l15.837-2.607l17.803,13.532
			l1.02-1.341l-16.537-12.565l62.703-10.327c-0.089-0.332-0.155-0.674-0.155-1.032c0-0.227,0.03-0.444,0.066-0.657l-64.459,10.612
			l-11.53-8.765l11.241-22.708l-1.496-0.77l-11.106,22.441l-18.181-13.818l-1.019,1.339L452.9,89.488l-4.448,8.634L450.126,98.539z"
			/>
		<path fill="#FFFFFF" d="M532.647,35.044l21.354,23.29l-28.998-2.848c0.257,0.405,0.411,0.882,0.411,1.395
			c0,0.115-0.02,0.224-0.033,0.335l30.326,2.976l19.575,21.351c0.303-0.471,0.753-0.829,1.285-1.029l-18.392-20.078l59.402,5.826
			l-9.524,15.087c0.493,0.296,0.928,0.688,1.25,1.164l10.146-16.067l24.457,2.4c-0.263-0.526-0.424-1.108-0.424-1.732l-23.027-2.262
			l19.644-31.105c-0.092,0.01-0.181,0.029-0.275,0.029c-0.536,0-1.036-0.164-1.45-0.443l-19.789,31.338l-62.111-6.095
			l-22.797-24.892C533.403,34.189,533.062,34.649,532.647,35.044z"/>
		<path fill="#FFFFFF" d="M503.887,41.813l-9.856,5.017l0.763,1.499l10.56-5.372l15.577,12.129c0.44-0.461,1.049-0.753,1.723-0.796
			L507.01,42.112l17.139-8.723c-0.236-0.516-0.378-1.078-0.44-1.663l-18.165,9.245l-31.657-24.648l-5.069-1.512l-0.464,1.617
			l4.626,1.325L503.887,41.813z"/>
	</g>
	<g>
		<path fill="#FFFFFF" d="M214.38,43.27l41.369-26.817c-0.303-0.486-0.493-1.046-0.558-1.645l-41.647,26.996
			C213.896,42.244,214.181,42.733,214.38,43.27z"/>
		<path fill="#FFFFFF" d="M441.864,8.857l0.463-1.618l-21.314-6.094c0.05,0.199,0.083,0.405,0.083,0.62
			c0,0.388-0.093,0.753-0.243,1.085L441.864,8.857z"/>
		<path fill="#FFFFFF" d="M416.039,2.617l-44.683,30.572c0.396,0.401,0.694,0.892,0.889,1.434l44.831-30.676
			C416.595,3.635,416.231,3.166,416.039,2.617z"/>
		<path fill="#FFFFFF" d="M284.389,96.655l-60.31-42.986l22.271-12.204c-0.455-0.346-0.792-0.832-0.942-1.4l-22.852,12.52
			l-8.122-5.79c-0.183,0.549-0.443,1.056-0.783,1.509l7.265,5.179l-32.247,17.665c0.445,0.361,0.81,0.815,1.062,1.338l32.708-17.918
			l60.627,43.21C283.417,97.31,283.868,96.929,284.389,96.655z"/>
		<path fill="#FFFFFF" d="M90.542,48.754l39.026,30.828l-20.23-1.854c0.026,0.161,0.05,0.325,0.05,0.496
			c0,0.417-0.085,0.812-0.236,1.177l22.835,2.091l55.286,43.674c0.523-0.92,1.397-1.607,2.448-1.875L168.38,84.826l66.902,6.125
			c0-0.013-0.004-0.026-0.004-0.043c0-0.575,0.131-1.121,0.356-1.614l-68.242-6.25l-10.113-18.227l23.831,7.414
			c0.317-0.55,0.754-1.02,1.29-1.361l-24.539-7.634c-0.134,1.184-0.866,2.18-1.897,2.679l9.4,16.945l-32.725-2.998l-41.153-32.51
			C91.246,47.872,90.927,48.343,90.542,48.754z M166.352,84.639l21.583,38.903L135.06,81.775L166.352,84.639z"/>
		<path fill="#FFFFFF" d="M261.567,17.422l17.129,20.042l-28.434,0.818c0.162,0.339,0.259,0.714,0.259,1.114
			c0,0.194-0.024,0.382-0.065,0.565l29.645-0.854l34.328,40.169c0.452-0.378,1.027-0.614,1.661-0.614c0.005,0,0.011,0,0.017,0
			l-33.849-39.617l82.429-2.37c-0.044-0.237-0.073-0.477-0.073-0.727c0-0.332,0.054-0.651,0.132-0.96l-83.893,2.413l-18.221-21.324
			C262.379,16.604,262.014,17.057,261.567,17.422z"/>
		<path fill="#FFFFFF" d="M335.487,97.665l1.093-1.279l-17.9-15.258c0.002,0.046,0.014,0.092,0.014,0.138
			c0,0.604-0.215,1.154-0.562,1.598L335.487,97.665z"/>
		<path fill="#FFFFFF" d="M193.359,129.973l0.121,0.096l-0.074-0.135C193.392,129.95,193.375,129.959,193.359,129.973z"/>
		<path fill="#FFFFFF" d="M383.566,194.631l-67.607-29.977l15.788-43.842l-1.583-0.568l-15.747,43.727l-9.077-4.027l-8.417,8.662
			l-35.232-49.373l21.848-16.229c-0.413-0.385-0.749-0.849-0.968-1.378l-21.858,16.236l-17.984-25.201
			c-0.266,0.529-0.644,0.986-1.107,1.348l17.739,24.859l-42.036,31.219c0.436,0.369,0.756,0.869,0.876,1.447l42.138-31.299
			l35.393,49.598l-25.006,25.73c0.428,0.381,0.78,0.844,1.009,1.377l24.99-25.717l7.323,10.266c0.452-0.342,0.957-0.609,1.503-0.793
			l-7.634-10.699l7.813-8.037l8.116,3.6l-5.396,14.982c0.56,0.127,1.08,0.352,1.558,0.641l5.38-14.939l67.212,29.803
			C382.754,195.471,383.1,194.977,383.566,194.631z"/>
		<path fill="#FFFFFF" d="M410.764,159.667l-10.807-9.219l8.99-30.592c-0.565-0.105-1.092-0.314-1.581-0.584l-8.812,29.98
			l-41.353-35.278l-1.093,1.282l41.927,35.763l-12.678,43.125c0.599,0.061,1.138,0.311,1.549,0.705l12.529-42.633l10.313,8.799
			C410.02,160.512,410.354,160.055,410.764,159.667z"/>
		<path fill="#FFFFFF" d="M419.376,161.522c0.217,0.533,0.335,1.115,0.368,1.717L463.3,139.36l-0.809-1.477L419.376,161.522z"/>
		<path fill="#FFFFFF" d="M265.288,195.756c0.407-0.42,0.907-0.742,1.465-0.949l-48.545-43.227c0.03,0.16,0.049,0.322,0.049,0.488
			c0,0.527-0.16,1.018-0.43,1.428L265.288,195.756z"/>
		<path fill="#FFFFFF" d="M415.265,114.712c-0.012,0.588-0.13,1.15-0.317,1.68l49.236,18.914l0.605-1.57L415.265,114.712z"/>
		<path fill="#FFFFFF" d="M107.089,81.203l28.128,81.831c0.4-0.213,0.85-0.346,1.334-0.346c0.116,0,0.227,0.021,0.339,0.033
			l-28.328-82.409C108.171,80.736,107.664,81.049,107.089,81.203z"/>
		<path fill="#FFFFFF" d="M9.49,136.436l74.348-86.794c-0.481-0.303-0.901-0.681-1.264-1.111L8.168,135.391
			C8.652,135.686,9.1,136.03,9.49,136.436z"/>
		<path fill="#FFFFFF" d="M133.695,165.545c0-0.467,0.122-0.896,0.319-1.285L11.306,140.977c-0.004,0.578-0.106,1.131-0.254,1.664
			l122.681,23.279C133.717,165.795,133.695,165.674,133.695,165.545z"/>
	</g>
	<g>
		<path fill="#FFFFFF" d="M189.292,74.184c0,1.713-1.387,3.101-3.098,3.101c-1.711,0-3.098-1.388-3.098-3.101
			c0-1.709,1.387-3.097,3.098-3.097C187.905,71.087,189.292,72.475,189.292,74.184z"/>
		<path fill="#FFFFFF" d="M186.194,78.126c-2.172,0-3.939-1.769-3.939-3.942c0-2.17,1.767-3.938,3.939-3.938s3.94,1.769,3.94,3.938
			C190.134,76.357,188.366,78.126,186.194,78.126z M186.194,71.929c-1.244,0-2.256,1.013-2.256,2.255
			c0,1.246,1.012,2.259,2.256,2.259c1.245,0,2.256-1.013,2.256-2.259C188.45,72.941,187.438,71.929,186.194,71.929z"/>
	</g>
	<g>
		<g>
			<circle fill="#FFFFFF" cx="215.652" cy="152.069" r="1.764"/>
		</g>
	</g>
	<g>
		<g>
			<path fill="#FFFFFF" d="M4.814,136.114c-2.655,0-4.814,2.158-4.814,4.814c0,2.652,2.159,4.812,4.814,4.812
				s4.814-2.16,4.814-4.812C9.628,138.272,7.469,136.114,4.814,136.114z"/>
		</g>
	</g>
	<g>
		<g>
			<path fill="#FFFFFF" d="M86.65,41.462c-2.017,0-3.658,1.64-3.658,3.655c0,2.019,1.642,3.659,3.658,3.659
				c2.017,0,3.659-1.641,3.659-3.659C90.309,43.102,88.667,41.462,86.65,41.462z"/>
		</g>
	</g>
	<g>
		<g>
			<circle fill="#FFFFFF" cx="209.388" cy="45.117" r="4.5"/>
		</g>
	</g>
	<g>
		<circle fill="#FFFFFF" cx="307.251" cy="185.735" r="4.5"/>
	</g>
	<g>
		<circle fill="#FFFFFF" cx="409.933" cy="114.616" r="4.5"/>
	</g>
	<g>
		<circle fill="#FFFFFF" cx="414.433" cy="163.53" r="4.499"/>
	</g>
	<g>
		<circle fill="#FFFFFF" cx="528.993" cy="31.168" r="4.5"/>
	</g>
	<g>
		<circle fill="#FFFFFF" cx="548.351" cy="196.723" r="4.499"/>
	</g>
	<g>
		<circle fill="#FFFFFF" cx="639.824" cy="130.43" r="4.499"/>
	</g>
	<g>
		<circle fill="#FFFFFF" cx="781.643" cy="67.103" r="4.499"/>
	</g>
	<g>
		<circle fill="#FFFFFF" cx="717.815" cy="195.389" r="4.499"/>
	</g>
	<g>
		<circle fill="#FFFFFF" cx="809.977" cy="166.348" r="4.499"/>
	</g>
	<g>
		<g>
			<circle fill="#FFFFFF" cx="106.29" cy="78.225" r="2.256"/>
		</g>
	</g>
	<g>
		<g>
			<circle fill="#FFFFFF" cx="239.218" cy="90.908" r="3.098"/>
		</g>
	</g>
	<g>
		<circle fill="#FFFFFF" cx="259.088" cy="14.388" r="3.098"/>
	</g>
	<g>
		<circle fill="#FFFFFF" cx="286.21" cy="100.127" r="3.098"/>
	</g>
	<g>
		<circle fill="#FFFFFF" cx="467.587" cy="61.97" r="3.097"/>
	</g>
	<g>
		<circle fill="#FFFFFF" cx="680.945" cy="16.563" r="3.097"/>
	</g>
	<g>
		<circle fill="#FFFFFF" cx="268.115" cy="198.489" r="3.098"/>
	</g>
	<g>
		<circle fill="#FFFFFF" cx="368.552" cy="35.948" r="3.098"/>
	</g>
	<g>
		<circle fill="#FFFFFF" cx="534.907" cy="87.812" r="3.099"/>
	</g>
	<g>
		<circle fill="#FFFFFF" cx="629.463" cy="198.489" r="3.097"/>
	</g>
	<g>
		<path fill="#FFFFFF" d="M583.744,138.032c0,1.709-1.387,3.096-3.097,3.096c-1.713,0-3.097-1.387-3.097-3.096
			c0-1.713,1.384-3.098,3.097-3.098C582.357,134.934,583.744,136.319,583.744,138.032z"/>
	</g>
	<g>
		<circle fill="#FFFFFF" cx="606.039" cy="84.715" r="3.097"/>
	</g>
	<g>
		<circle fill="#FFFFFF" cx="647.42" cy="67.103" r="3.097"/>
	</g>
	<g>
		<circle fill="#FFFFFF" cx="725.412" cy="98.444" r="3.097"/>
	</g>
	<g>
		<path fill="#FFFFFF" d="M745.345,147.208c0,1.713-1.387,3.096-3.097,3.096c-1.713,0-3.101-1.383-3.101-3.096
			c0-1.711,1.388-3.098,3.101-3.098C743.958,144.11,745.345,145.497,745.345,147.208z"/>
	</g>
	<g>
		<circle fill="#FFFFFF" cx="846.759" cy="49.618" r="3.099"/>
	</g>
	<g>
		<g>
			<path fill="#FFFFFF" d="M193.781,127.1c0,1.713-1.387,3.096-3.098,3.096c-1.711,0-3.098-1.383-3.098-3.096
				c0-1.711,1.387-3.098,3.098-3.098C192.395,124.002,193.781,125.389,193.781,127.1z"/>
		</g>
	</g>
	<g>
		<g>
			<path fill="#FFFFFF" d="M157.059,62.854c0,1.417-1.149,2.564-2.567,2.564c-1.418,0-2.567-1.147-2.567-2.564
				c0-1.42,1.149-2.567,2.567-2.567C155.909,60.287,157.059,61.435,157.059,62.854z"/>
		</g>
	</g>
	<g>
		<g>
			<path fill="#FFFFFF" d="M189.292,74.184c0,1.713-1.387,3.101-3.098,3.101c-1.711,0-3.098-1.388-3.098-3.101
				c0-1.709,1.387-3.097,3.098-3.097C187.905,71.087,189.292,72.475,189.292,74.184z"/>
		</g>
	</g>
	<g>
		<circle fill="#FFFFFF" cx="247.916" cy="39.396" r="1.764"/>
	</g>
	<g>
		<circle fill="#FFFFFF" cx="392.961" cy="42.925" r="1.764"/>
	</g>
	<g>
		<circle fill="#FFFFFF" cx="385.103" cy="196.723" r="1.764"/>
	</g>
	<g>
		<path fill="#FFFFFF" d="M420.254,1.766c0,0.974-0.789,1.763-1.764,1.763c-0.976,0-1.765-0.789-1.765-1.763
			c0-0.977,0.789-1.766,1.765-1.766C419.465,0,420.254,0.789,420.254,1.766z"/>
	</g>
	<g>
		<circle fill="#FFFFFF" cx="447.622" cy="101.89" r="1.764"/>
	</g>
	<g>
		<circle fill="#FFFFFF" cx="522.809" cy="56.881" r="1.764"/>
	</g>
	<g>
		<circle fill="#FFFFFF" cx="316.089" cy="81.266" r="1.764"/>
	</g>
	<g>
		<path fill="#FFFFFF" d="M750.556,117.352c0,0.973-0.789,1.762-1.766,1.762c-0.973,0-1.762-0.789-1.762-1.762
			c0-0.977,0.789-1.766,1.762-1.766C749.767,115.586,750.556,116.375,750.556,117.352z"/>
	</g>
	<g>
		<circle fill="#FFFFFF" cx="665.794" cy="97.027" r="1.764"/>
	</g>
	<g>
		<circle fill="#FFFFFF" cx="709.139" cy="73.365" r="1.764"/>
	</g>
	<g>
		<circle fill="#FFFFFF" cx="577.47" cy="82.949" r="1.764"/>
	</g>
	<g>
		<circle fill="#FFFFFF" cx="639.825" cy="31.168" r="1.764"/>
	</g>
	<g>
		<path fill="#FFFFFF" d="M785.155,183.208c-0.114,0.971-0.992,1.656-1.959,1.541c-0.97-0.115-1.657-0.992-1.542-1.963
			c0.115-0.965,0.993-1.656,1.963-1.537C784.584,181.364,785.274,182.241,785.155,183.208z"/>
	</g>
	<g>
		<g>
			<circle fill="#FFFFFF" cx="136.551" cy="165.545" r="2.014"/>
		</g>
	</g>
	<g>
		<g>
			<g>
				<line fill="#FFFFFF" x1="395.566" y1="42.925" x2="411.548" y2="41.648"/>
				
					<rect x="402.715" y="34.27" transform="matrix(0.0792 0.9969 -0.9969 0.0792 413.7285 -363.3517)" fill="#FFFFFF" width="1.682" height="16.032"/>
			</g>
		</g>
	</g>
	<g>
		<g>
			<g>
				<line fill="#FFFFFF" x1="346.505" y1="76.847" x2="391.197" y2="45.223"/>
				
					<rect x="368.009" y="33.66" transform="matrix(0.5774 0.8165 -0.8165 0.5774 205.7132 -275.3611)" fill="#FFFFFF" width="1.683" height="54.749"/>
			</g>
		</g>
	</g>
</g>
<g>
	<path fill="#FFFFFF" d="M343.116,128.579c-0.211,0-0.423-0.004-0.636-0.014c-3.975-0.197-7.614-2.191-10.248-5.621
		c-2.602-3.391-3.909-7.779-3.683-12.362c0.394-8.002,5.388-14.666,12.144-16.205l12.396-1.821l-0.636-4.353l6.223-0.576
		l0.664,4.018l7.91-1.15l1.135-0.003c5.462,0.272,9.595,6.227,9.247,13.278c-0.32,6.474-3.166,13.002-8.801,13.002
		c-0.095-0.039-0.228,0-0.344-0.006c-2.595-0.129-5.314-1.746-7.37-4.359l-3.137,0.992
		C356.97,122.092,350.663,128.579,343.116,128.579z M354.375,89.715l0.623,4.265l-13.99,2.048
		c-5.964,1.361-10.419,7.384-10.776,14.637c-0.207,4.186,0.978,8.184,3.337,11.254c2.327,3.031,5.522,4.793,8.995,4.965
		c6.952,0.338,13.069-6.01,13.798-14.194l0.05-0.556l5.346-1.696l0.357,0.493c1.795,2.492,4.209,4.044,6.456,4.152l0.26,0.007
		c4.505,0.003,6.849-5.911,7.12-11.402c0.303-6.125-3.113-11.29-7.614-11.514l-0.971-0.006l-9.417,1.381l-0.677-4.101
		L354.375,89.715z"/>
</g>
<g>
	<g>
		<g>
			<path fill="#FFFFFF" d="M356.935,90.386l-1.683-0.049c0.002-0.066,0.119-6.441-4.637-8.571c-5.492-2.463-3.877-6.717-3.86-6.76
				l1.565,0.621l-0.783-0.312l0.785,0.303c-0.107,0.289-0.936,2.854,2.982,4.613C357.095,82.827,356.944,90.077,356.935,90.386z"/>
		</g>
	</g>
</g>
<g>
	<path fill="#FFFFFF" d="M351.024,109.004c-0.278-0.888-1.222-1.378-2.109-1.104l-2.488,0.779l-0.538-3.363
		c-0.146-0.921-1.014-1.549-1.929-1.397c-0.917,0.147-1.542,1.009-1.396,1.93l0.616,3.847l-3.243,1.013
		c-0.888,0.276-1.382,1.22-1.105,2.107c0.226,0.72,0.89,1.184,1.606,1.184c0.167,0,0.336-0.026,0.503-0.079l2.776-0.868l0.53,3.317
		c0.132,0.826,0.847,1.417,1.659,1.417c0.089,0,0.178-0.006,0.269-0.023c0.917-0.145,1.542-1.01,1.396-1.926l-0.607-3.798
		l2.955-0.924C350.807,110.835,351.301,109.892,351.024,109.004z"/>
</g>
<g>
	<path fill="#FFFFFF" d="M366.445,103.474c-1.578,0-2.834-1.663-2.861-3.783c-0.026-2.145,1.2-3.841,2.792-3.86
		c1.606,0,2.863,1.664,2.889,3.787c0.026,2.144-1.2,3.837-2.792,3.856H366.445z M366.404,97.514
		c-0.552,0.007-1.152,0.931-1.137,2.153c0.015,1.217,0.635,2.124,1.178,2.124v0.842l0.007-0.842c0.546-0.007,1.146-0.928,1.13-2.153
		C367.567,98.421,366.948,97.514,366.404,97.514z"/>
</g>
<g>
	<path fill="#FFFFFF" d="M370.794,110.103c-1.578,0-2.835-1.664-2.861-3.784c-0.026-2.144,1.2-3.841,2.792-3.86
		c1.606,0,2.862,1.664,2.889,3.787c0.026,2.145-1.2,3.837-2.792,3.857H370.794z M370.753,104.142
		c-0.552,0.007-1.152,0.931-1.137,2.153c0.015,1.217,0.634,2.124,1.178,2.124v0.842l0.006-0.842c0.546-0.007,1.146-0.928,1.13-2.153
		C371.917,105.049,371.296,104.142,370.753,104.142z"/>
</g>
<g>
	<path fill="#FFFFFF" d="M466.259,136.907l-1.473-0.814c0.131-0.24,3.337-5.926,9.277-8.545l0.681,1.537
		C469.312,131.483,466.288,136.854,466.259,136.907z"/>
</g>
<g>
	<path fill="#FFFFFF" d="M501.986,162.543l-1.322-1.041c0.043-0.053,4.235-5.445,4.209-10.162l1.683-0.01
		C506.586,156.639,502.177,162.303,501.986,162.543z"/>
</g>
<g>
	
		<rect x="499.091" y="105.462" transform="matrix(0.8162 0.5778 -0.5778 0.8162 164.7339 -265.6759)" fill="#FFFFFF" width="1.683" height="41.229"/>
</g>
<g>
	<polygon fill="#FFFFFF" points="492.777,139.071 490.242,137.192 493.776,130.758 497.616,133.756 	"/>
</g>
<g>
	<polygon fill="#FFFFFF" points="501.927,126.389 499.329,124.594 494.382,130.016 498.458,132.686 	"/>
</g>
<g>
	<path fill="#FFFFFF" d="M506.145,122.665c-0.976,1.357-2.87,1.666-4.228,0.688l0,0c-1.361-0.977-1.667-2.871-0.69-4.229
		l4.597-6.381c0.976-1.358,2.866-1.667,4.228-0.688l0,0c1.357,0.977,1.667,2.87,0.69,4.229L506.145,122.665z"/>
</g>
<g>
	<path fill="#FFFFFF" d="M432.392,79.011L432.392,79.011c-1.61,0-3.462-1.121-5.661-3.426c-8.68-9.098-13.877-29.195-14.095-30.047
		l-0.088-0.309c-0.603-2.085-1.606-5.573,0.19-8.637c1.361-2.318,4.103-3.972,8.153-4.916c6.625-1.545,7.861-3.58,11.954-10.329
		c1.177-1.943,2.644-4.356,4.523-7.2c4.524-6.849,9.245-10.176,14.427-10.176c3.965,0,8.252,1.96,13.114,5.993
		c1.457,1.21,35.686,29.794,31.829,42.139c-1.92,6.139-5.438,8.644-12.146,8.644c-4.747,0-11.24-1.217-19.236-2.808
		c-2.262-0.447-4.461-0.678-6.542-0.678c-6.264,0-14.969,2.107-20.864,12.139l-0.22,0.365c-0.135,0.217-0.332,1.157-0.487,1.91
		C436.637,74.595,435.716,79.011,432.392,79.011z M451.796,5.655c-4.573,0-8.834,3.08-13.022,9.419
		c-1.861,2.817-3.317,5.218-4.487,7.145c-4.146,6.835-5.698,9.393-13.014,11.096c-3.581,0.835-5.964,2.226-7.083,4.133
		c-1.43,2.437-0.583,5.372-0.024,7.315l0.097,0.338c0.058,0.228,5.312,20.545,13.686,29.323c2.291,2.4,3.682,2.903,4.444,2.903
		c1.957,0,2.706-3.606,3.206-5.997c0.263-1.266,0.424-2.005,0.707-2.459l0.193-0.325c6.303-10.719,15.613-12.967,22.317-12.967
		c2.189,0,4.501,0.24,6.871,0.71c7.903,1.571,14.314,2.774,18.907,2.774c5.98,0,8.838-2.021,10.537-7.459
		c2.821-9.028-19.239-30.336-31.295-40.344C459.289,7.489,455.35,5.655,451.796,5.655z"/>
</g>
<g>
	<path fill="#FFFFFF" d="M421.812,53.077c-2.193,0-4.304-1.703-5.247-4.238c-1.168-3.13-0.089-6.431,2.402-7.361
		c0.441-0.164,0.908-0.246,1.385-0.246c2.196,0,4.304,1.703,5.25,4.241c0.55,1.476,0.625,3.041,0.211,4.398
		c-0.44,1.443-1.371,2.496-2.617,2.959C422.752,52.995,422.289,53.077,421.812,53.077z M420.353,42.915
		c-0.276,0-0.543,0.049-0.796,0.141c-1.622,0.605-2.257,2.937-1.413,5.195c0.818,2.199,2.873,3.603,4.464,3.001
		c0.747-0.276,1.312-0.94,1.595-1.87c0.306-1.01,0.243-2.189-0.178-3.321C423.334,44.21,421.825,42.915,420.353,42.915z"/>
</g>
<g>
	<path fill="#FFFFFF" d="M421.467,50.677c-1.321,0-2.584-1.003-3.14-2.495c-0.319-0.861-0.361-1.775-0.118-2.574
		c0.263-0.871,0.854-1.532,1.621-1.818c1.505-0.556,3.327,0.51,4.011,2.341c0.69,1.854,0.013,3.823-1.506,4.393
		C422.059,50.624,421.767,50.677,421.467,50.677z M420.697,45.318c-0.099,0-0.19,0.016-0.279,0.049
		c-0.371,0.138-0.536,0.517-0.599,0.729c-0.135,0.441-0.104,0.986,0.086,1.496c0.407,1.092,1.279,1.562,1.841,1.352
		c0.642-0.24,0.878-1.26,0.517-2.229C421.921,45.798,421.217,45.318,420.697,45.318z"/>
</g>
<g>
	<path fill="#FFFFFF" d="M434.289,42.711c-2.17,0-4.094-1.973-4.468-4.587c-0.404-2.847,1.163-5.435,3.498-5.77
		c2.377-0.332,4.569,1.736,4.978,4.554c0.404,2.847-1.164,5.435-3.502,5.767C434.628,42.701,434.457,42.711,434.289,42.711z
		 M433.825,34.002c-0.089,0-0.178,0.006-0.27,0.02c-1.414,0.204-2.344,1.937-2.067,3.863c0.27,1.884,1.66,3.327,3.07,3.123
		c1.417-0.2,2.344-1.934,2.071-3.86C436.377,35.386,435.144,34.002,433.825,34.002z"/>
</g>
<g>
	<path fill="#FFFFFF" d="M440.177,35.261c-1.624,0-2.945-1.256-2.945-2.798s1.321-2.794,2.945-2.794
		c1.625,0,2.946,1.252,2.946,2.794S441.802,35.261,440.177,35.261z M440.177,31.352c-0.696,0-1.262,0.5-1.262,1.111
		c0,0.615,0.565,1.114,1.262,1.114c0.694,0,1.263-0.499,1.263-1.114C441.439,31.852,440.871,31.352,440.177,31.352z"/>
</g>
<g>
	<path fill="#FFFFFF" d="M449.094,20.818c-1.802,0-3.265-1.532-3.265-3.413s1.463-3.412,3.265-3.412s3.268,1.531,3.268,3.412
		S450.896,20.818,449.094,20.818z M449.094,15.676c-0.871,0-1.582,0.776-1.582,1.729s0.711,1.729,1.582,1.729
		c0.874,0,1.584-0.776,1.584-1.729S449.968,15.676,449.094,15.676z"/>
</g>
<g>
	<path fill="#FFFFFF" d="M447.278,29.938c-1.802,0-3.268-1.529-3.268-3.413c0-1.881,1.466-3.413,3.268-3.413
		s3.265,1.532,3.265,3.413C450.543,28.409,449.08,29.938,447.278,29.938z M447.278,24.796c-0.874,0-1.584,0.776-1.584,1.729
		s0.71,1.729,1.584,1.729c0.871,0,1.582-0.776,1.582-1.729S448.149,24.796,447.278,24.796z"/>
</g>
<g>
	<path fill="#FFFFFF" d="M455.419,31.352c-1.802,0-3.268-1.532-3.268-3.412c0-1.884,1.466-3.416,3.268-3.416
		s3.265,1.532,3.265,3.416C458.684,29.819,457.221,31.352,455.419,31.352z M455.419,26.206c-0.874,0-1.585,0.776-1.585,1.733
		c0,0.953,0.711,1.729,1.585,1.729c0.871,0,1.581-0.776,1.581-1.729C457,26.982,456.29,26.206,455.419,26.206z"/>
</g>
<g>
	<path fill="#FFFFFF" d="M457.523,21.877c-1.864,0-3.38-1.69-3.38-3.769c0-2.077,1.516-3.768,3.38-3.768s3.38,1.69,3.38,3.768
		C460.903,20.187,459.388,21.877,457.523,21.877z M457.523,16.024c-0.934,0-1.696,0.938-1.696,2.084
		c0,1.147,0.763,2.085,1.696,2.085c0.937,0,1.696-0.938,1.696-2.085C459.22,16.962,458.46,16.024,457.523,16.024z"/>
</g>
<g>
	<path fill="#FFFFFF" d="M428.006,44.871c-1.624,0-2.945-1.256-2.945-2.798s1.321-2.798,2.945-2.798s2.946,1.256,2.946,2.798
		S429.63,44.871,428.006,44.871z M428.006,40.958c-0.693,0-1.263,0.5-1.263,1.115c0,0.614,0.569,1.114,1.263,1.114
		c0.697,0,1.263-0.5,1.263-1.114C429.269,41.458,428.703,40.958,428.006,40.958z"/>
</g>
<g>
	<path fill="#FFFFFF" d="M450.175,48.803c-2.784,0-5.05-2.291-5.05-5.112c0-2.817,2.266-5.109,5.05-5.109
		c2.785,0,5.05,2.292,5.05,5.109C455.225,46.512,452.96,48.803,450.175,48.803z M450.175,40.265c-1.857,0-3.366,1.535-3.366,3.426
		s1.509,3.429,3.366,3.429c1.854,0,3.367-1.538,3.367-3.429S452.029,40.265,450.175,40.265z"/>
</g>
<g>
	<path fill="#FFFFFF" d="M450.175,51.538c-4.271,0-7.745-3.521-7.745-7.848c0-4.326,3.475-7.845,7.745-7.845
		c4.271,0,7.746,3.519,7.746,7.845C457.921,48.018,454.446,51.538,450.175,51.538z M450.175,37.529
		c-3.344,0-6.062,2.765-6.062,6.161c0,3.399,2.719,6.164,6.062,6.164s6.062-2.765,6.062-6.164
		C456.237,40.294,453.519,37.529,450.175,37.529z"/>
</g>
<g>
	<path fill="#FFFFFF" d="M433.118,60.389c-2.337,0-4.576-1.657-5.565-4.126c-1.282-3.195-0.072-6.7,2.695-7.812
		c0.569-0.23,1.171-0.346,1.785-0.346c2.341,0,4.577,1.661,5.566,4.126c1.282,3.199,0.072,6.704-2.696,7.815
		C434.338,60.273,433.736,60.389,433.118,60.389z M432.033,49.789c-0.4,0-0.789,0.076-1.157,0.224
		c-1.906,0.766-2.699,3.288-1.762,5.625c0.914,2.278,3.281,3.604,5.161,2.848c1.91-0.767,2.699-3.291,1.763-5.625
		C435.302,51.022,433.694,49.789,432.033,49.789z"/>
</g>
<g>
	<path fill="#FFFFFF" d="M431.754,75.999c-0.032-0.161-3.143-15.955,19.529-22.558c22.343-6.509,37.506,5.33,37.657,5.448
		l-1.052,1.315c-0.145-0.112-14.663-11.402-36.136-5.149c-21.113,6.151-18.477,20.003-18.352,20.592L431.754,75.999z"/>
</g>
<g>
	<path fill="#FFFFFF" d="M421.782,36.54c-2.712,0-4.53-1.447-4.557-1.47l1.065-1.302l-0.532,0.65l0.529-0.654
		c0.128,0.103,3.166,2.473,7.163-0.059l0.224-0.139c4.501-2.84,12.875-8.13,11.56-18.854l1.671-0.204
		c1.446,11.78-7.516,17.441-12.333,20.482l-0.22,0.138C424.683,36.185,423.124,36.54,421.782,36.54z"/>
</g>
<g>
	<path fill="#FFFFFF" d="M481.178,175.157C481.178,175.157,481.182,175.157,481.178,175.157c-4.474-0.004-8.597-1.967-12.246-5.846
		c-15.851-15.332-4.229-33.102-4.109-33.281l1.406,0.926c-1.367,2.111-3.037,6.766-3.363,8.781
		c1.184-1.318,4.481-5.934,12.898-21.73c9.291-17.439,18.049-26.279,26.038-26.279c5.116,0,7.825,3.751,7.937,3.908l0.171,0.247
		l-0.272,4.063l3.005,2.903l2.808,1.403l3.738-1.614l0.289,0.083c0.204,0.059,5.011,1.473,6.529,6.809
		c2.141,7.535-3.347,18.529-16.311,32.673c-11.858,12.939-15.219,17.658-16.133,19.363c1.812-1.016,5.58-4.09,7.096-6.059
		c0.453-0.584,0.641-0.828,1.088-0.828h0.486l0.486,0.842l-0.256,0.457C502.384,162.11,492.754,175.157,481.178,175.157z
		 M462.372,147.917c-0.693,5.836,0.54,13.23,7.756,20.213c3.348,3.555,7.056,5.34,11.05,5.344c4.051,0,7.881-1.773,11.077-3.975
		c-0.267-0.109-0.48-0.311-0.599-0.58c-0.365-0.832-1.046-2.379,16.8-21.854c15.597-17.016,17.277-26.275,15.939-31.045
		c-1.075-3.823-4.169-5.24-5.109-5.589l-3.89,1.677l-4.859-2.426l0.217-0.312l-2.85-2.755l0.286-4.225
		c-0.612-0.733-2.778-2.979-6.389-2.979c-5.03,0-13.374,4.406-24.553,25.387C465.15,147.512,463.237,147.907,462.372,147.917z"/>
</g>
</svg>
