<?xml version="1.0" encoding="utf-8"?>
<!-- Generator: Adobe Illustrator 16.0.4, SVG Export Plug-In . SVG Version: 6.00 Build 0)  -->
<!DOCTYPE svg PUBLIC "-//W3C//DTD SVG 1.1//EN" "http://www.w3.org/Graphics/SVG/1.1/DTD/svg11.dtd">
<svg version="1.1" id="Calque_1" xmlns="http://www.w3.org/2000/svg" xmlns:xlink="http://www.w3.org/1999/xlink" x="0px" y="0px"
	 width="70px" height="58px" viewBox="0 0 70 58" enable-background="new 0 0 70 58" xml:space="preserve">
<g>
	<rect x="29" y="52" fill="#FFFFFF" width="4" height="4"/>
	<rect x="25" y="48" fill="#FFFFFF" width="4" height="4"/>
	<rect x="21" y="44" fill="#FFFFFF" width="4" height="4"/>
	<rect x="17" y="40" fill="#FFFFFF" width="4" height="4"/>
	<rect x="13" y="36" fill="#FFFFFF" width="4" height="4"/>
	<rect x="9" y="32" fill="#FFFFFF" width="4" height="4"/>
	<rect x="33" y="54" fill="#FFFFFF" width="4" height="4"/>
	<rect x="37" y="52" fill="#FFFFFF" width="4" height="4"/>
	<rect x="41" y="48" fill="#FFFFFF" width="4" height="4"/>
	<rect x="45" y="44" fill="#FFFFFF" width="4" height="4"/>
	<rect x="49" y="40" fill="#FFFFFF" width="4" height="4"/>
	<rect x="53" y="36" fill="#FFFFFF" width="4" height="4"/>
	<rect x="57" y="32" fill="#FFFFFF" width="4" height="4"/>
	<polygon fill="#FFFFFF" points="69,16 69,12 67,12 67,8 65,8 65,4 61,4 61,2 57,2 57,1 53,1 53,0 49,0 49,1 45,1 45,2 41,2 41,3 
		37,3 37,6 33,6 33,3 29,3 29,2 25,2 25,1 21,1 21,0 17,0 17,1 13,1 13,2 9,2 9,4 5,4 5,8 3,8 3,12 1,12 1,16 0,16 0,20 1,20 1,24 
		2,24 2,28 5,28 5,32 9,32 9,28 6,28 6,24 5,24 5,20 4,20 4,16 5,16 5,12 7,12 7,8 9,8 9,6 13,6 13,5 17,5 17,4 21,4 21,5 25,5 
		25,6 29,6 29,7 33,7 33,10 37,10 37,7 41,7 41,6 45,6 45,5 49,5 49,4 53,4 53,5 57,5 57,6 61,6 61,8 63,8 63,12 65,12 65,16 66,16 
		66,20 65,20 65,24 64,24 64,28 61,28 61,32 65,32 65,28 68,28 68,24 69,24 69,20 70,20 70,16 	"/>
</g>
<path fill="#FFFFFF" d="M67.121,15l-2.129-4l-1.008-5.25L51.719,2L35.562,7L19.75,2L13,3.5L6.5,7L4.875,9.625l-1.75,4L2,21l2.625,4
	l2.25,5.125L34,57l1.875,0.209l28-28.209l1-2l2.374-2l0.499-6L67.121,15z M15,10h-2v3h-2v3H9v3h1v4H6v-4H5v-4h2v-3h2V9h2V6h4V10z"/>
</svg>
