<?xml version="1.0" encoding="utf-8"?>
<!-- Generator: Adobe Illustrator 16.0.4, SVG Export Plug-In . SVG Version: 6.00 Build 0)  -->
<!DOCTYPE svg PUBLIC "-//W3C//DTD SVG 1.1//EN" "http://www.w3.org/Graphics/SVG/1.1/DTD/svg11.dtd">
<svg version="1.1" id="Layer_1" xmlns="http://www.w3.org/2000/svg" xmlns:xlink="http://www.w3.org/1999/xlink" x="0px" y="0px"
	 width="800px" height="799.936px" viewBox="240 0.032 800 799.936" enable-background="new 240 0.032 800 799.936"
	 xml:space="preserve">
<g id="XMLID_504_">
	<path id="XMLID_505_" fill="#FFFFFF" d="M342.72,0.032h594.608C993.818,0.032,1040,46.229,1040,102.72v594.608
		c0,56.475-46.182,102.64-102.672,102.64H342.72c-56.49,0-102.72-46.168-102.72-102.64V102.72
		C240,46.229,286.229,0.032,342.72,0.032z M822.789,88.877c-19.834,0-36.013,16.243-36.013,36.066v86.171
		c0,19.832,16.179,36.037,36.013,36.037h90.408c19.803,0,36.016-16.205,36.016-36.037v-86.171c0-19.824-16.213-36.066-36.016-36.066
		H822.789z M949.558,338.314h-70.39c6.675,21.8,10.293,44.789,10.293,68.69c0,133.02-111.376,240.907-248.709,240.907
		c-137.299,0-248.677-107.888-248.677-240.907c0-23.901,3.653-46.891,10.296-68.69h-73.438v337.952
		c0,17.501,14.291,31.739,31.776,31.739h557.085c17.501,0,31.763-14.238,31.763-31.739V338.314z M640.755,242.608
		c-88.693,0-160.641,69.674-160.641,155.702c0,85.938,71.947,155.666,160.641,155.666c88.741,0,160.69-69.728,160.69-155.666
		C801.445,312.28,729.496,242.608,640.755,242.608z"/>
</g>
</svg>
