<?xml version="1.0" encoding="utf-8"?>
<!-- Generator: Adobe Illustrator 16.0.4, SVG Export Plug-In . SVG Version: 6.00 Build 0)  -->
<!DOCTYPE svg PUBLIC "-//W3C//DTD SVG 1.1//EN" "http://www.w3.org/Graphics/SVG/1.1/DTD/svg11.dtd">
<svg version="1.1" id="Calque_1" xmlns="http://www.w3.org/2000/svg" xmlns:xlink="http://www.w3.org/1999/xlink" x="0px" y="0px"
	 width="357.103px" height="52.48px" viewBox="0 0 357.103 52.48" enable-background="new 0 0 357.103 52.48" xml:space="preserve">
<g>
	<path fill="#FFFFFF" d="M23.642,37.519c-2.823,2.982-6.327,4.238-10.25,4.238c-3.872,0-7.22-1.414-9.782-3.976
		C-0.051,34.119,0,29.988,0,22.82c0-7.164-0.051-11.299,3.609-14.958c2.562-2.564,5.806-3.976,9.782-3.976
		c7.897,0,12.503,5.18,13.546,11.56h-5.701c-0.941-4.079-3.66-6.485-7.845-6.485c-2.197,0-4.187,0.888-5.493,2.3
		c-1.83,1.989-2.25,4.081-2.25,11.56c0,7.481,0.42,9.624,2.25,11.613c1.307,1.412,3.296,2.25,5.493,2.25
		c2.458,0,4.603-0.943,6.067-2.616c1.359-1.569,1.883-3.452,1.883-5.858v-2.092h-7.95v-4.812h13.601v5.701
		C26.992,31.818,26.102,34.904,23.642,37.519z"/>
	<path fill="#FFFFFF" d="M46.346,41.442v-2.406c-1.936,1.936-3.766,2.722-7.061,2.722c-3.297,0-5.494-0.786-7.113-2.408
		c-1.361-1.412-2.093-3.451-2.093-5.7c0-4.446,3.086-7.638,9.153-7.638h7.01v-1.884c0-3.347-1.674-4.969-5.807-4.969
		c-2.93,0-4.342,0.679-5.808,2.563l-3.505-3.296c2.513-2.929,5.129-3.818,9.521-3.818c7.27,0,10.934,3.087,10.934,9.102v17.732
		H46.346z M46.242,29.725h-6.227c-3.137,0-4.758,1.412-4.758,3.817c0,2.406,1.517,3.768,4.863,3.768
		c2.039,0,3.559-0.156,4.971-1.517c0.785-0.784,1.15-2.041,1.15-3.922V29.725z"/>
	<path fill="#FFFFFF" d="M89.502,41.442V25.281c0-4.134-2.354-5.911-5.335-5.911c-2.877,0-5.492,1.829-5.492,5.647v16.425h-5.337
		V25.281c0-4.134-2.354-5.911-5.336-5.911c-2.98,0-5.492,1.829-5.492,5.911v16.161h-5.334V14.921h5.23v2.668
		c1.777-1.934,4.393-2.982,7.062-2.982c3.296,0,5.858,1.308,7.532,3.872c2.145-2.615,4.812-3.872,8.316-3.872
		c2.722,0,5.127,0.889,6.695,2.406c2.041,1.988,2.824,4.5,2.824,7.482v16.946H89.502z"/>
	<path fill="#FFFFFF" d="M100.28,9.691V4.042h5.649v5.649H100.28z M100.436,41.442V14.921h5.336v26.521H100.436z"/>
	<path fill="#FFFFFF" d="M127.793,41.442V25.281c0-4.134-2.352-5.911-5.335-5.911c-2.981,0-5.491,1.829-5.491,5.911v16.161h-5.336
		V14.921h5.23v2.668c1.83-1.988,4.395-2.982,7.061-2.982c2.722,0,4.971,0.889,6.54,2.406c2.039,1.988,2.669,4.5,2.669,7.482v16.946
		H127.793z"/>
	<path fill="#FFFFFF" d="M147.621,52.48c-4.029,0-6.592-0.941-9.365-3.505l3.4-3.401c1.676,1.569,3.139,2.355,5.756,2.355
		c4.496,0,6.225-3.191,6.225-6.748v-3.399c-1.938,2.3-4.133,3.032-6.854,3.032c-2.666,0-4.863-0.889-6.33-2.354
		c-2.562-2.562-2.982-6.275-2.982-10.774s0.42-8.212,2.982-10.777c1.467-1.464,3.715-2.301,6.383-2.301
		c2.824,0,4.969,0.733,6.957,3.139v-2.825h5.178v26.365C158.97,47.771,154.679,52.48,147.621,52.48z M148.248,19.37
		c-4.812,0-5.441,4.132-5.441,8.316c0,4.186,0.629,8.317,5.441,8.317s5.389-4.132,5.389-8.317
		C153.636,23.501,153.06,19.37,148.248,19.37z"/>
	<g>
		<g>
			<path fill="#FFFFFF" d="M187.9,37.519c-2.877,2.929-6.332,4.238-10.516,4.238c-3.975,0-7.324-1.36-10.043-4.082
				c-1.621-1.62-2.615-3.504-3.033-5.597c-0.418-2.091-0.627-5.178-0.627-9.259c0-4.079,0.209-7.164,0.627-9.257
				c0.418-2.143,1.412-3.976,3.033-5.597c2.719-2.721,6.068-4.081,10.043-4.081c8.475,0,13.023,5.442,14.02,11.926h-7.326
				c-0.887-3.61-3.086-5.439-6.693-5.439c-1.936,0-3.506,0.681-4.654,1.989c-1.363,1.726-1.779,3.084-1.779,10.459
				c0,7.324,0.312,8.789,1.779,10.514c1.098,1.309,2.668,1.937,4.654,1.937c2.145,0,3.871-0.679,5.178-2.091
				c1.1-1.258,1.676-2.93,1.676-4.971v-1.412h-6.854v-6.068h14.072v5.439C191.457,31.609,190.46,34.799,187.9,37.519z"/>
			<path fill="#FFFFFF" d="M200.451,29.933c0,3.506,2.148,6.07,5.967,6.07c2.979,0,4.445-0.838,6.17-2.564l4.133,4.029
				c-2.771,2.771-5.441,4.289-10.357,4.289c-6.432,0-12.605-2.931-12.605-13.967c0-8.893,4.814-13.915,11.875-13.915
				c7.584,0,11.871,5.544,11.871,13.025v3.032H200.451z M210.185,22.351c-0.734-1.623-2.25-2.827-4.553-2.827
				s-3.818,1.204-4.553,2.827c-0.418,0.992-0.572,1.727-0.629,2.93h10.359C210.757,24.078,210.601,23.343,210.185,22.351z"/>
			<path fill="#FFFFFF" d="M357.103,13.706c-22.15-32.05-42.479,4.436-42.479,4.436c-0.51-0.393-1.609-1.611-2.1-2.027
				c-9.266-7.851-17.209-14.704-29.586-15.958c-7.066-0.716-13.867,1.079-20.127,4.352c-6.359,3.518-13.26,9.444-18.996,19.388
				c-0.018-2.928-0.604-5.448-2.77-7.613c-1.516-1.516-3.715-2.407-6.434-2.407c-2.514,0-5.023,0.94-6.801,2.825v-2.51h-6.645
				v27.251h6.799V24.966c0-3.715,2.408-4.971,4.553-4.971s4.5,1.256,4.5,4.971v16.476h6.799V28.591
				c-1.152,0.734-2.439,1.754-3.781,3.174c0,0,0.443-0.688,1.574-2.371c2.018-2.67,5.748-7.258,10.605-11.681
				c0.828,3.546,1.656,7.092,2.488,10.64c0.559,2.375,3.73,1.036,3.248-1.031c-0.943-4.035-1.893-8.073-2.84-12.114
				c1.814-1.516,3.746-2.939,5.773-4.201c1.168,5.43,2.336,10.866,3.506,16.297c0.229,1.05,4.529-0.666,4.211-2.164
				c-1.182-5.471-2.357-10.94-3.533-16.411c0.17-0.079,0.332-0.178,0.502-0.256c0.414-0.184,0.836-0.358,1.26-0.526
				c0.445-0.174,0.893-0.35,1.348-0.503c0.809-0.277,1.631-0.513,2.463-0.716c0.133-0.031,0.268-0.084,0.398-0.114
				c0.021-0.005,0.041-0.003,0.066-0.01c0.146-0.03,0.289-0.048,0.438-0.079c0.053-0.014,0.098-0.031,0.15-0.044
				c0.473-0.104,0.912-0.14,1.359-0.199c1.195,5.74,2.395,11.479,3.594,17.22c0.541,2.596,5.939,0.324,5.494-1.805
				c-1.088-5.211-2.172-10.426-3.264-15.638c0.258,0.018,0.506,0.004,0.766,0.033c2.266,0.231,4.48,0.738,6.646,1.447
				c0.943,4.528,1.887,9.052,2.832,13.583c0.42,2.014,4.723,0.164,4.387-1.467c-0.699-3.346-1.396-6.695-2.098-10.039
				c2.217,1.065,4.363,2.317,6.443,3.682c0.389,1.836,0.775,3.669,1.166,5.504c0.459,2.146,4.6,0.407,4.227-1.37
				c-0.021-0.107-0.049-0.215-0.072-0.324c2.074,1.597,4.066,3.247,5.973,4.871c0.965,0.816,1.723,1.459,2.209,1.814
				c0,0-1.988,2.867-5.371,6.475c-0.572-2.572-1.146-5.146-1.721-7.719c-0.535-2.404-4.756-0.855-4.289,1.245
				c0.762,3.411,1.527,6.821,2.285,10.231c-1.564,1.48-3.199,2.842-4.904,4.086c-1.01-4.609-2.018-9.215-3.023-13.824
				c-0.434-1.961-4.719-0.078-4.369,1.487c1.09,4.992,2.18,9.983,3.275,14.974c-1.922,1.066-3.93,1.979-6.074,2.666
				c-0.037,0.015-0.072,0.022-0.117,0.037c-0.08,0.026-0.168,0.044-0.252,0.07c-1.207-5.523-2.422-11.045-3.629-16.568
				c-0.514-2.348-5.844,0.057-5.443,1.905c1.168,5.324,2.332,10.651,3.498,15.978c-2.789,0.512-5.508,0.852-8.145,0.957
				c-1.26-5.598-2.525-11.195-3.787-16.793c-0.178-0.778-4.504,0.871-4.211,2.166c1.096,4.846,2.188,9.688,3.283,14.529
				c-2.221-0.182-4.359-0.594-6.414-1.244c-1.045-4.295-2.094-8.594-3.145-12.89c-0.287-1.177-3.375,0.359-2.996,1.896
				c0.766,3.142,1.529,6.281,2.299,9.423c-4.334-2.246-10.139-4.433-13.287-10.059c0,0,8.117,19.993,33.064,17.949
				c0.701-0.065,1.406-0.138,2.104-0.233c0.314-0.044,0.613-0.072,0.936-0.123c3.838-0.604,7.496-1.662,10.666-3.095
				c10.115-4.577,19.35-13.835,24.211-20.2c11.148,7.842,29.836,11.05,37.523-9.804c-1.02,1.625-2.066,3.027-3.129,4.265
				c-0.521-2.068-1.039-4.138-1.562-6.21c-0.059-0.241-1.143,0.193-1.049,0.543c0.561,2.235,1.121,4.47,1.686,6.702
				c-1.684,1.78-3.404,3.117-5.139,4.109c-0.678-3.097-1.363-6.195-2.037-9.292c-0.244-1.123-2.422-0.263-2.215,0.684
				c0.701,3.22,1.412,6.442,2.115,9.664c-1.748,0.72-3.477,1.108-5.174,1.255c-0.768-3.391-1.533-6.779-2.297-10.168
				c-0.137-0.615-3.379,0.631-3.156,1.623c0.641,2.838,1.285,5.677,1.922,8.517c-1.924-0.192-3.762-0.652-5.443-1.251
				c-0.545-2.162-1.09-4.324-1.637-6.483c-0.402-1.61-3.639-0.26-3.311,1.054c0.307,1.209,0.613,2.418,0.92,3.629
				c-3.371-1.807-5.51-3.717-5.51-3.717s1.27-2.187,3.475-5.013c0.113,0.47,0.223,0.941,0.342,1.414
				c0.408,1.701,3.678,0.428,3.33-1.013c-0.291-1.23-0.582-2.456-0.879-3.684c1.34-1.445,2.855-2.901,4.525-4.222
				c0.506,2.34,1.012,4.679,1.514,7.022c0.379,1.746,3.666,0.508,3.342-0.997c-0.584-2.72-1.172-5.442-1.756-8.164
				c1.609-0.964,3.318-1.743,5.105-2.246c0.693,3.341,1.395,6.683,2.09,10.025c0.207,0.996,2.355,0.065,2.188-0.738
				c-0.676-3.251-1.35-6.505-2.035-9.755c1.906-0.256,3.883-0.148,5.918,0.401c0.613,2.954,1.225,5.909,1.844,8.859
				c0.039,0.188,1.121-0.215,1.051-0.54c-0.551-2.644-1.104-5.287-1.656-7.929C350.08,6.874,353.578,9.372,357.103,13.706z"/>
		</g>
	</g>
</g>
</svg>
