<?xml version="1.0" encoding="utf-8"?>
<!-- Generator: Adobe Illustrator 16.0.4, SVG Export Plug-In . SVG Version: 6.00 Build 0)  -->
<!DOCTYPE svg PUBLIC "-//W3C//DTD SVG 1.1//EN" "http://www.w3.org/Graphics/SVG/1.1/DTD/svg11.dtd">
<svg version="1.1" id="Calque_1" xmlns="http://www.w3.org/2000/svg" xmlns:xlink="http://www.w3.org/1999/xlink" x="0px" y="0px"
	 width="56px" height="90px" viewBox="0 0 56 90" enable-background="new 0 0 56 90" xml:space="preserve">
<g>
	<g>
		<path fill="#64DC13" d="M29.691,70.141c-3.082,0-5.404-2.42-5.404-5.627c0-3.306,2.304-5.703,5.479-5.703
			c3.131,0,5.404,2.397,5.404,5.703C35.17,67.773,32.866,70.141,29.691,70.141z M29.766,60.811c-2.081,0-3.479,1.487-3.479,3.703
			c0,2.135,1.4,3.627,3.404,3.627c2.08,0,3.479-1.457,3.479-3.627C33.17,62.298,31.802,60.811,29.766,60.811z M32.771,55.062
			c-0.006,0-0.013,0-0.02,0h-5.823c-0.522,0-0.957-0.402-0.997-0.924l-0.149-1.94c-0.507-4.556,1.126-9.153,4.857-13.63
			c3.164-3.728,4.993-6.488,4.993-9.586c0-3.433-2.169-5.357-6.106-5.419c-2.471,0-5.258,0.848-6.918,2.11
			c-0.25,0.19-0.578,0.253-0.88,0.166c-0.303-0.086-0.547-0.311-0.66-0.605l-1.792-4.703c-0.161-0.422-0.019-0.899,0.346-1.165
			c2.654-1.93,7.075-3.177,11.264-3.177c9.301,0,13.465,6.013,13.465,11.973c0,5.308-2.885,9.155-6.654,13.633
			c-3.031,3.583-4.233,6.654-4.021,10.27l0.067,1.763c0.019,0.075,0.028,0.155,0.028,0.237
			C33.771,54.615,33.324,55.062,32.771,55.062z M27.855,53.062h3.858l-0.035-0.902c-0.244-4.155,1.098-7.647,4.49-11.657
			c3.62-4.299,6.184-7.701,6.184-12.343c0-4.601-3.002-9.973-11.465-9.973c-3.414,0-7.094,0.938-9.457,2.376l1.066,2.799
			c1.973-1.114,4.6-1.8,7.046-1.8c5.071,0.08,8.092,2.854,8.092,7.419c0,3.713-2.003,6.799-5.463,10.874
			c-3.362,4.035-4.844,8.127-4.396,12.156L27.855,53.062z"/>
	</g>
</g>
<g>
	<g>
		<path fill="#64DC13" d="M17.958,38.688c-1.29,0-2.442-0.796-3.008-2.077c-0.383-0.868-0.44-1.79-0.161-2.597
			c0.29-0.833,0.92-1.501,1.775-1.879c1.709-0.754,3.654,0.042,4.433,1.803c0.784,1.775,0.083,3.684-1.63,4.441
			C18.905,38.584,18.431,38.688,17.958,38.688z M17.948,33.835c-0.188,0-0.381,0.043-0.575,0.129
			c-0.347,0.153-0.587,0.397-0.694,0.706c-0.115,0.332-0.081,0.723,0.101,1.132c0.343,0.778,1.031,1.076,1.779,0.748
			c0.812-0.359,0.892-1.165,0.609-1.804C18.912,34.167,18.468,33.835,17.948,33.835z M14.345,31.947
			c-0.128,0-0.257-0.025-0.379-0.075c-0.251-0.103-0.45-0.304-0.551-0.557l-0.372-0.938c-0.627-1.677-1.735-2.769-3.832-3.787
			c-2.821-1.378-5.071-2.645-6.253-5.315c-1.347-3.05-0.594-7.06,4.126-9.147c2.036-0.901,4.568-1.262,6.311-0.886
			c0.441,0.095,0.764,0.474,0.788,0.925l0.137,2.609c0.017,0.314-0.116,0.619-0.358,0.82c-0.242,0.202-0.565,0.278-0.872,0.205
			c-0.937-0.22-2.359-0.046-3.43,0.426c-1.612,0.743-2.125,1.827-1.51,3.218c0.522,1.18,1.608,2.034,4.15,3.263
			c2.802,1.388,4.675,3.379,5.427,5.761l0.326,0.921c0.173,0.493-0.062,1.036-0.539,1.247l-2.765,1.222
			C14.621,31.919,14.482,31.947,14.345,31.947z M11.848,13.092c-1.248,0-2.727,0.324-3.954,0.867
			c-3.69,1.631-4.024,4.431-3.106,6.508c0.91,2.056,2.771,3.09,5.3,4.326c2.518,1.223,4.002,2.711,4.804,4.819l0.967-0.428
			l-0.028-0.08c-0.603-1.909-2.083-3.445-4.41-4.598c-2.525-1.221-4.263-2.36-5.1-4.25c-1.062-2.404-0.098-4.646,2.517-5.85
			c1.063-0.47,2.292-0.729,3.424-0.702l-0.031-0.603C12.106,13.095,11.979,13.092,11.848,13.092z"/>
	</g>
</g>
<g>
	<g>
		<path fill="#64DC13" d="M43.812,64.329c-0.367,0-0.732-0.075-1.086-0.224c-1.492-0.625-2.113-2.185-1.476-3.709
			c0.626-1.496,2.224-2.192,3.662-1.592c0.721,0.303,1.265,0.852,1.53,1.547c0.262,0.682,0.236,1.459-0.068,2.188
			C45.915,63.643,44.934,64.329,43.812,64.329z M43.814,60.578c-0.424,0-0.644,0.413-0.719,0.591
			c-0.099,0.235-0.257,0.815,0.401,1.092c0.427,0.179,0.837-0.022,1.032-0.491c0.107-0.258,0.125-0.5,0.048-0.701
			c-0.07-0.184-0.222-0.327-0.437-0.418C44.027,60.602,43.918,60.578,43.814,60.578z M46.462,59.042
			c-0.129,0-0.26-0.024-0.386-0.077l-2.148-0.898c-0.252-0.105-0.449-0.309-0.548-0.562c-0.098-0.254-0.089-0.536,0.026-0.783
			l0.328-0.705c0.578-1.185,0.599-2.334,0.078-3.984c-0.738-2.355-1.231-4.327-0.334-6.475c1.207-2.883,4.313-4.04,7.607-2.662
			c1.654,0.693,3.204,1.931,3.948,3.155c0.233,0.386,0.182,0.882-0.13,1.209l-1.389,1.459c-0.219,0.228-0.524,0.343-0.844,0.304
			c-0.312-0.037-0.59-0.22-0.747-0.491c-0.353-0.608-1.153-1.265-1.948-1.599c-0.361-0.145-0.707-0.221-1.009-0.221
			c-0.221,0-0.89,0-1.291,0.959c-0.36,0.859-0.261,1.879,0.38,3.896c0.728,2.365,0.6,4.531-0.367,6.271l-0.34,0.664
			C47.176,58.842,46.826,59.042,46.462,59.042z M45.657,56.622l0.339,0.144c0.656-1.274,0.703-2.813,0.152-4.604
			c-0.67-2.11-0.957-3.731-0.314-5.265c0.811-1.938,2.732-2.687,4.902-1.815c0.795,0.333,1.539,0.84,2.123,1.426l0.011-0.01
			c-0.627-0.681-1.588-1.351-2.556-1.756c-2.262-0.946-4.199-0.3-4.989,1.589c-0.642,1.529-0.261,3.014,0.396,5.104
			C46.357,53.454,46.342,55.068,45.657,56.622z"/>
	</g>
</g>
</svg>
