<?xml version="1.0" encoding="utf-8"?>
<!-- Generator: Adobe Illustrator 16.0.4, SVG Export Plug-In . SVG Version: 6.00 Build 0)  -->
<!DOCTYPE svg PUBLIC "-//W3C//DTD SVG 1.1//EN" "http://www.w3.org/Graphics/SVG/1.1/DTD/svg11.dtd">
<svg version="1.1" id="Calque_1" xmlns="http://www.w3.org/2000/svg" xmlns:xlink="http://www.w3.org/1999/xlink" x="0px" y="0px"
	 width="56px" height="90px" viewBox="0 0 56 90" enable-background="new 0 0 56 90" xml:space="preserve">
<g>
	<path fill="#64DC13" d="M53,90H3c-1.654,0-3-1.346-3-3V19c0-1.654,1.346-3,3-3h50c1.654,0,3,1.346,3,3v68
		C56,88.654,54.654,90,53,90z M3,18c-0.551,0-1,0.449-1,1v68c0,0.552,0.449,1,1,1h50c0.552,0,1-0.448,1-1V19c0-0.551-0.448-1-1-1H3z
		"/>
</g>
<g>
	<path fill="#64DC13" d="M28.083,10.333C26.383,10.333,25,8.95,25,7.25s1.383-3.083,3.083-3.083s3.083,1.383,3.083,3.083
		S29.783,10.333,28.083,10.333z M28.083,6.167C27.486,6.167,27,6.652,27,7.25s0.486,1.083,1.083,1.083
		c0.599,0,1.083-0.486,1.083-1.083C29.167,6.652,28.682,6.167,28.083,6.167z"/>
</g>
<g>
	<path fill="#64DC13" d="M40.891,17.993c-6.748-0.75-7.524-10.266-7.555-10.671c-0.003-2.968-2.357-5.447-5.253-5.447
		c-2.895,0-5.25,2.125-5.25,5.125h-2c0-4,3.252-7.124,7.249-7.124c3.998,0,7.25,3.314,7.25,7.311
		c0.004,0.008,0.68,8.221,5.777,8.788L40.891,17.993z"/>
</g>
<g>
	<path fill="#64DC13" d="M15.192,17.993l-0.221-1.987c5.098-0.567,5.774-8.749,5.78-8.831C20.749,3.252,24,0,28,0v2
		c-3,0-5.251,2.354-5.251,5.249C22.717,7.727,21.941,17.243,15.192,17.993z"/>
</g>
<g>
	<path fill="#64DC13" d="M27,33H8c-0.552,0-1-0.448-1-1s0.448-1,1-1h19c0.552,0,1,0.448,1,1S27.552,33,27,33z"/>
</g>
<g>
	<path fill="#64DC13" d="M27,40H8c-0.552,0-1-0.448-1-1s0.448-1,1-1h19c0.552,0,1,0.448,1,1S27.552,40,27,40z"/>
</g>
<g>
	<path fill="#64DC13" d="M27,47H8c-0.552,0-1-0.448-1-1s0.448-1,1-1h19c0.552,0,1,0.448,1,1S27.552,47,27,47z"/>
</g>
<g>
	<path fill="#64DC13" d="M27,54H8c-0.552,0-1-0.447-1-1s0.448-1,1-1h19c0.552,0,1,0.447,1,1S27.552,54,27,54z"/>
</g>
<g>
	<path fill="#64DC13" d="M47,61H8c-0.552,0-1-0.447-1-1s0.448-1,1-1h39c0.553,0,1,0.447,1,1S47.553,61,47,61z"/>
</g>
<g>
	<path fill="#64DC13" d="M47,67H8c-0.552,0-1-0.447-1-1s0.448-1,1-1h39c0.553,0,1,0.447,1,1S47.553,67,47,67z"/>
</g>
<g>
	<path fill="#64DC13" d="M47,73H8c-0.552,0-1-0.447-1-1s0.448-1,1-1h39c0.553,0,1,0.447,1,1S47.553,73,47,73z"/>
</g>
<g>
	<path fill="#64DC13" d="M47,79h-4c-0.553,0-1-0.447-1-1s0.447-1,1-1h4c0.553,0,1,0.447,1,1S47.553,79,47,79z"/>
</g>
<g>
	<path fill="#64DC13" d="M37.229,52.996c0-1.414,0.982-2.436,2.318-2.436c1.414,0,2.318,1.021,2.318,2.436
		c0,1.375-0.904,2.436-2.318,2.436C38.172,55.432,37.229,54.371,37.229,52.996z M38.211,47.377l-0.551-18.86h3.771l-0.55,18.86
		H38.211z"/>
</g>
</svg>
