<?xml version="1.0" encoding="utf-8"?>
<!-- Generator: Adobe Illustrator 16.0.4, SVG Export Plug-In . SVG Version: 6.00 Build 0)  -->
<!DOCTYPE svg PUBLIC "-//W3C//DTD SVG 1.1//EN" "http://www.w3.org/Graphics/SVG/1.1/DTD/svg11.dtd">
<svg version="1.1" id="Calque_1" xmlns="http://www.w3.org/2000/svg" xmlns:xlink="http://www.w3.org/1999/xlink" x="0px" y="0px"
	 width="56px" height="90px" viewBox="0 0 56 90" enable-background="new 0 0 56 90" xml:space="preserve">
<g>
	<path fill="#64DC13" d="M32.874,85h-9.792c-5.412,0-7.904-8.995-8.007-9.378c-0.068-0.28-6.108-25.495-7.895-39.076
		c-1.458-11.089,4.311-16.285,5.483-17.215c0.353-8.099,7.086-14.58,15.313-14.58c8.208,0,14.92,6.464,15.234,14.528
		c1.677,1.084,6.156,5.141,5,17.086c-1.319,13.646-7.215,38.979-7.274,39.232C40.82,76.02,38.281,85,32.874,85z M24,83h8.874
		c3.229,0,5.517-5.699,6.125-7.896c0.049-0.213,5.914-25.416,7.222-38.931c1.229-12.705-4.341-15.362-4.396-15.387l-0.591-0.265
		l-0.012-0.652c0-7.233-5.767-13.117-13.07-13.117C20.803,6.751,15,12.694,15,20v1h-1.22c-1.144,0.952-5.897,5.549-4.616,15.286
		c1.772,13.478,7.788,38.59,7.849,38.842c0.59,2.169,2.844,7.872,6.07,7.872H24z"/>
</g>
<g>
	<path fill="#64DC13" d="M27.597,28.74c-7.212,0-12.253-2.458-12.566-2.615l0.894-1.79c0.108,0.054,10.975,5.322,23.366-0.023
		l0.793,1.836C35.579,28.091,31.301,28.74,27.597,28.74z"/>
</g>
<g>
	<path fill="#64DC13" d="M45.174,50.59C24.3,48.798,7.757,37.199,7.593,37.083l1.158-1.631c0.161,0.114,16.28,11.401,36.595,13.146
		L45.174,50.59z"/>
</g>
<g>
	<path fill="#64DC13" d="M27.397,24.958c-3.153,0-5.718-2.564-5.718-5.717c0-3.153,2.565-5.719,5.718-5.719s5.718,2.565,5.718,5.719
		C33.115,22.394,30.55,24.958,27.397,24.958z M27.397,15.523c-2.05,0-3.718,1.668-3.718,3.719c0,2.049,1.668,3.717,3.718,3.717
		c2.05,0,3.718-1.667,3.718-3.717C31.115,17.191,29.447,15.523,27.397,15.523z"/>
</g>
<g>
	<path fill="#64DC13" d="M25,75h-5c-0.552,0-1-0.447-1-1s0.448-1,1-1h5c0.552,0,1,0.447,1,1S25.552,75,25,75z"/>
</g>
<g>
	<path fill="#64DC13" d="M35,75h-5c-0.552,0-1-0.447-1-1s0.448-1,1-1h5c0.553,0,1,0.447,1,1S35.553,75,35,75z"/>
</g>
<g>
	<path fill="#64DC13" d="M19.729,26.991l-1.715-1.029c0.088-0.147,2.207-3.592,6.687-3.814l0.099,1.997
		C21.374,24.314,19.745,26.964,19.729,26.991z"/>
</g>
<g>
	<path fill="#64DC13" d="M34.896,26.995c-0.067-0.109-1.687-2.682-5.074-2.851l0.099-1.997c4.479,0.222,6.599,3.667,6.687,3.814
		L34.896,26.995z"/>
</g>
</svg>
