<?xml version="1.0" encoding="utf-8"?>
<!-- Generator: Adobe Illustrator 21.0.2, SVG Export Plug-In . SVG Version: 6.00 Build 0)  -->
<svg version="1.1" id="Calque_1" xmlns="http://www.w3.org/2000/svg" xmlns:xlink="http://www.w3.org/1999/xlink" x="0px" y="0px"
	 viewBox="0 0 168 150" style="enable-background:new 0 0 168 150;" xml:space="preserve">
<style type="text/css">
	.st0{fill:#4C4C4C;}
</style>
<g>
	<path class="st0" d="M53.4,0C53.4,0,53.3,0,53.4,0c-0.1,0-0.1,0-0.1,0h-5c-9.1,0-16.4,7.3-16.4,16.4v15.6
		c0,11.5,9.1,20.8,20.4,21.4c3.8,13,15.4,22.6,29.3,23.7v20c-8.3,0.9-14.9,6-16.3,12.5H54.8c-1.4,0-2.5,1.1-2.5,2.5v15.2H43
		c-1.4,0-2.5,1.1-2.5,2.5v17.7c0,1.4,1.1,2.5,2.5,2.5h82.1c1.4,0,2.5-1.1,2.5-2.5v-17.7c0-1.4-1.1-2.5-2.5-2.5h-9.3v-15.2
		c0-1.4-1.1-2.5-2.5-2.5h-10.4c-1.4-6.5-8-11.7-16.3-12.5v-20c13.9-1,25.5-10.7,29.3-23.7c11.3-0.6,20.3-9.9,20.3-21.4V16.4
		c0-9.1-7.3-16.4-16.4-16.4h-5C82.6,9.5,53.4,0,53.4,0z M131.2,32.1c0,8.2-6,15-13.9,16.2v-4.1c0,0,0-0.1,0-0.1V5h0
		c7.7,0,13.9,6.2,13.9,13.9V32.1z M50.7,48.3c-7.9-1.2-13.9-8-13.9-16.2V18.9C36.8,11.2,43.1,5,50.7,5h0V48.3z M112.3,5v5.8h-7.6
		c-1.4,0-2.5,1.1-2.5,2.5s1.1,2.5,2.5,2.5h7.6v28.3c-0.1,15.5-12.7,28.1-28.2,28.1c-15.5,0-28.2-12.6-28.2-28.2V15.8h7.4
		c1.4,0,2.5-1.1,2.5-2.5s-1.1-2.5-2.5-2.5h-7.4V5C55.9,5,85.9,12.4,112.3,5z M84.1,101.9c6.6,0,12.1,3.3,13.6,7.7H70.4
		C72,105.2,77.5,101.9,84.1,101.9z M57.3,114.6h10.2h33.1h10.2v12.7H57.3V114.6z M122.6,145H45.5v-12.7h9.3h58.5h9.3L122.6,145
		L122.6,145z"/>
	<path class="st0" d="M93.4,13.3c0-1.4-1.1-2.5-2.5-2.5H77.1c-1.4,0-2.5,1.1-2.5,2.5s1.1,2.5,2.5,2.5h13.8
		C92.3,15.8,93.4,14.7,93.4,13.3z"/>
	<path class="st0" d="M130.7,97.8h-5.3c-0.9,0-1.7,0.7-1.7,1.7c0,0.9,0.7,1.7,1.7,1.7h5.3c0.9,0,1.7-0.7,1.7-1.7
		C132.3,98.5,131.6,97.8,130.7,97.8z"/>
	<path class="st0" d="M144.7,97.8h-5.3c-0.9,0-1.7,0.7-1.7,1.7c0,0.9,0.7,1.7,1.7,1.7h5.3c0.9,0,1.7-0.7,1.7-1.7
		C146.4,98.5,145.7,97.8,144.7,97.8z"/>
	<path class="st0" d="M133.8,98.3c-0.3,0.3-0.5,0.7-0.5,1.2c0,0.4,0.2,0.9,0.5,1.2c0.3,0.3,0.7,0.5,1.2,0.5c0.4,0,0.9-0.2,1.2-0.5
		c0.3-0.3,0.5-0.7,0.5-1.2c0-0.4-0.2-0.9-0.5-1.2C135.6,97.6,134.5,97.6,133.8,98.3z"/>
	<path class="st0" d="M133.4,89.7v5.3c0,0.9,0.7,1.7,1.7,1.7s1.7-0.7,1.7-1.7v-5.3c0-0.9-0.7-1.7-1.7-1.7S133.4,88.8,133.4,89.7z"/>
	<path class="st0" d="M135,102.1c-0.9,0-1.7,0.7-1.7,1.7v5.3c0,0.9,0.7,1.7,1.7,1.7s1.7-0.7,1.7-1.7v-5.3
		C136.7,102.9,135.9,102.1,135,102.1z"/>
	<path class="st0" d="M29.1,79.3h-5.9c-0.9,0-1.7,0.7-1.7,1.7s0.7,1.7,1.7,1.7h5.9c0.9,0,1.7-0.7,1.7-1.7S30,79.3,29.1,79.3z"/>
	<path class="st0" d="M46.2,80.9c0-0.9-0.7-1.7-1.7-1.7h-5.9c-0.9,0-1.7,0.7-1.7,1.7s0.7,1.7,1.7,1.7h5.9
		C45.5,82.6,46.2,81.9,46.2,80.9z"/>
	<path class="st0" d="M33.9,82.6c0.4,0,0.9-0.2,1.2-0.5c0.3-0.3,0.5-0.8,0.5-1.2c0-0.4-0.2-0.9-0.5-1.2c-0.6-0.6-1.7-0.6-2.3,0
		c-0.3,0.3-0.5,0.8-0.5,1.2c0,0.4,0.2,0.9,0.5,1.2C33,82.4,33.5,82.6,33.9,82.6z"/>
	<path class="st0" d="M33.9,68.6c-0.9,0-1.7,0.7-1.7,1.7v5.9c0,0.9,0.7,1.7,1.7,1.7c0.9,0,1.7-0.7,1.7-1.7v-5.9
		C35.6,69.4,34.8,68.6,33.9,68.6z"/>
	<path class="st0" d="M33.9,84.1c-0.9,0-1.7,0.7-1.7,1.7v5.9c0,0.9,0.7,1.7,1.7,1.7c0.9,0,1.7-0.7,1.7-1.7v-5.9
		C35.6,84.8,34.8,84.1,33.9,84.1z"/>
</g>
</svg>
