<?xml version="1.0" encoding="utf-8"?>
<!-- Generator: Adobe Illustrator 16.0.4, SVG Export Plug-In . SVG Version: 6.00 Build 0)  -->
<!DOCTYPE svg PUBLIC "-//W3C//DTD SVG 1.1//EN" "http://www.w3.org/Graphics/SVG/1.1/DTD/svg11.dtd">
<svg version="1.1" id="Layer_1" xmlns="http://www.w3.org/2000/svg" xmlns:xlink="http://www.w3.org/1999/xlink" x="0px" y="0px"
	 width="800px" height="665.452px" viewBox="240 67.274 800 665.452" enable-background="new 240 67.274 800 665.452"
	 xml:space="preserve">
<path fill="#FFFFFF" d="M1027.277,144.687c-17.775,7.882-36.227,14.1-55.16,18.602c20.862-19.825,36.549-44.621,45.397-72.298l0,0
	c2.526-7.901-6.056-14.734-13.19-10.503l0,0c-26.34,15.623-54.712,27.344-84.33,34.839c-1.718,0.435-3.491,0.655-5.27,0.655
	c-5.396,0-10.641-2.003-14.766-5.639C868.447,82.57,827.918,67.274,785.84,67.274c-18.207,0-36.591,2.838-54.641,8.436
	c-55.924,17.346-99.074,63.477-112.612,120.392c-5.079,21.348-6.454,42.715-4.091,63.508c0.271,2.389-0.857,4.057-1.555,4.839
	c-1.223,1.371-2.956,2.157-4.757,2.157c-0.201,0-0.407-0.01-0.612-0.029c-122.416-11.373-232.806-70.35-310.835-166.064l0,0
	c-3.979-4.882-11.609-4.283-14.78,1.157l0,0c-15.28,26.214-23.355,56.197-23.355,86.707c0,46.757,18.785,90.82,51.415,122.943
	c-13.722-3.253-27.002-8.377-39.339-15.229l0,0c-5.969-3.315-13.312,0.946-13.396,7.773l0,0
	c-0.854,69.46,39.813,131.267,100.734,159.099c-1.227,0.029-2.454,0.043-3.682,0.043c-9.657,0-19.435-0.933-29.059-2.772l0,0
	c-6.721-1.283-12.368,5.093-10.281,11.609l0,0c19.774,61.735,72.929,107.239,136.537,117.571
	c-52.791,35.438-114.269,54.132-178.254,54.132l-19.948-0.012c-6.146,0-11.344,4.006-12.91,9.959
	c-1.543,5.863,1.299,12.048,6.54,15.097c72.102,41.961,154.343,64.138,237.871,64.138c73.114,0,141.506-14.51,203.277-43.123
	c56.629-26.232,106.67-63.73,148.734-111.452c39.186-44.456,69.827-95.774,91.072-152.53
	c20.252-54.101,30.956-111.827,30.956-166.939v-2.625c-0.002-8.849,4-17.176,10.983-22.844
	c26.497-21.514,49.571-46.839,68.578-75.271l0,0C1043.45,150.433,1035.535,141.024,1027.277,144.687L1027.277,144.687z"/>
</svg>
