<?xml version="1.0" encoding="utf-8"?>
<!-- Generator: Adobe Illustrator 16.0.4, SVG Export Plug-In . SVG Version: 6.00 Build 0)  -->
<!DOCTYPE svg PUBLIC "-//W3C//DTD SVG 1.1//EN" "http://www.w3.org/Graphics/SVG/1.1/DTD/svg11.dtd">
<svg version="1.1" id="Calque_1" xmlns="http://www.w3.org/2000/svg" xmlns:xlink="http://www.w3.org/1999/xlink" x="0px" y="0px"
	 width="167.972px" height="149.963px" viewBox="303.164 250.404 167.972 149.963"
	 enable-background="new 303.164 250.404 167.972 149.963" xml:space="preserve">
<path fill="#4C4C4C" d="M426.805,250.404c-16.971,0-32.209,9.698-39.655,24.589c-7.446-14.892-22.685-24.589-39.655-24.589
	c-24.416,0-44.33,19.914-44.33,44.331c0,11.429,4.329,22.338,12.294,30.65l69.786,74.114c0.52,0.521,1.212,0.868,1.905,0.868
	s1.385-0.347,1.905-0.868c0,0,69.786-73.94,69.786-74.114c7.966-8.312,12.296-19.222,12.296-30.65
	C471.136,270.318,451.221,250.404,426.805,250.404z M387.149,393.96c0,0-67.535-71.864-67.708-71.864
	c-7.1-7.273-11.083-16.972-11.083-27.188c0-21.646,17.489-39.137,39.135-39.137c16.971,0,31.863,10.91,37.231,27.014
	c0.346,1.039,1.386,1.732,2.424,1.732c1.04,0,2.078-0.693,2.425-1.732c5.195-16.104,20.259-27.014,37.23-27.014
	c21.646,0,39.135,17.49,39.135,39.137c0,7.62-2.25,14.892-6.232,21.299l-34.98-35.152c-2.424-2.425-5.888-3.81-9.351-3.81
	c-3.637,0-6.927,1.385-9.351,3.81c-5.195,5.194-5.195,13.506,0,18.701l3.117,3.116h-30.478c-5.195,0-9.351,4.156-9.351,9.352v0.693
	c0,1.558,0.346,2.944,1.039,4.155h-5.888c-5.194,0-9.351,4.156-9.351,9.352v0.692c0,5.195,4.156,9.352,9.351,9.352h5.888
	c-0.693,1.213-1.039,2.598-1.039,4.156v0.691c0,5.195,4.156,9.351,9.351,9.351h8.659c-0.693,1.213-1.039,2.6-1.039,4.156v0.694
	c0,5.192,4.156,9.352,9.351,9.352h18.528L387.149,393.96z M419.185,359.847h-23.376c-2.252,0-4.156-1.907-4.156-4.156v-0.694
	c0-2.252,1.904-4.156,4.156-4.156h19.394c1.386,0,2.598-1.213,2.598-2.599c0-1.384-1.211-2.597-2.598-2.597h-36.365
	c-2.251,0-4.156-1.904-4.156-4.155v-0.692c0-2.251,1.905-4.155,4.156-4.155h36.365c1.386,0,2.598-1.213,2.598-2.6
	c0-1.385-1.211-2.596-2.598-2.596h-50.737c-2.251,0-4.157-1.905-4.157-4.156v-0.692c0-2.252,1.905-4.156,4.157-4.156h50.563
	c1.386,0,2.598-1.213,2.598-2.598c0-1.387-1.211-2.598-2.598-2.598h-36.364c-2.25,0-4.156-1.905-4.156-4.156v-0.692
	c0-2.252,1.905-4.156,4.156-4.156h35.499l4.849,4.849c1.039,1.039,2.598,1.039,3.637,0c1.039-1.039,1.039-2.597,0-3.636
	l-12.988-13.334c-3.117-3.117-3.117-8.312,0-11.43c1.559-1.559,3.463-2.424,5.715-2.424c2.25,0,4.156,0.865,5.714,2.424
	l35.326,35.499C455.896,320.883,419.185,359.847,419.185,359.847z"/>
</svg>
