<?xml version="1.0" encoding="utf-8"?>
<!-- Generator: Adobe Illustrator 16.0.4, SVG Export Plug-In . SVG Version: 6.00 Build 0)  -->
<!DOCTYPE svg PUBLIC "-//W3C//DTD SVG 1.1//EN" "http://www.w3.org/Graphics/SVG/1.1/DTD/svg11.dtd">
<svg version="1.1" id="Calque_1" xmlns="http://www.w3.org/2000/svg" xmlns:xlink="http://www.w3.org/1999/xlink" x="0px" y="0px"
	 width="70px" height="58px" viewBox="0 0 70 58" enable-background="new 0 0 70 58" xml:space="preserve">
<polygon fill="#DC2B00" points="69,16 69,12 67,12 67,8 65,8 65,4 61,4 61,2 57,2 57,1 53,1 53,0 49,0 49,1 45,1 45,2 41,2 41,3 
	37,3 37,6 33,6 33,3 29,3 29,2 25,2 25,1 21,1 21,0 17,0 17,1 13,1 13,2 9,2 9,4 5,4 5,8 3,8 3,12 1,12 1,16 0,16 0,20 1,20 1,24 
	2,24 2,28 5,28 5,32 8.71,32 9,32.441 9,36 12.747,36 13,36.404 13,40 16.784,40 17,40.367 17,44 20.821,44 21,44.331 21,48 
	24.858,48 25,48.294 25,52 28.896,52 29,52.257 29,56 32.933,56 33,56.22 33,58 37,58 37,56.286 37.018,56 41,56 41,52.257 
	40.987,52 45,52 45,48.227 44.958,48 49,48 49,44 48.929,44 49,44.197 49,44 53,44 53,40 52.898,40 53,40.167 53,40 57,40 57,36 
	56.869,36 57,36.138 57,36 61,36 61,32 60.84,32 61,32.107 61,32 65,32 65,28 68,28 68,24 69,24 69,20 70,20 70,16 "/>
<rect x="11" y="6" fill="#FFFFFF" width="4" height="4"/>
<rect x="9" y="9" fill="#FFFFFF" width="4" height="4"/>
<rect x="7" y="12" fill="#FFFFFF" width="4" height="4"/>
<rect x="5" y="15" fill="#FFFFFF" width="4" height="4"/>
<rect x="6" y="19" fill="#FFFFFF" width="4" height="4"/>
</svg>
