<?xml version="1.0" standalone="no"?>
<!DOCTYPE svg PUBLIC "-//W3C//DTD SVG 20010904//EN"
 "http://www.w3.org/TR/2001/REC-SVG-20010904/DTD/svg10.dtd">
<svg version="1.0" xmlns="http://www.w3.org/2000/svg"
 width="200px" height="150px" viewBox="0 0 4000.000000 3000.000000"
 preserveAspectRatio="xMidYMid meet">

<g transform="translate(0.000000,3000.000000) scale(0.100000,-0.100000)"
fill="#FFFFFF" stroke="none">
<path d="M30904 28956 c-17 -8 -45 -31 -62 -52 -59 -72 -157 -197 -212 -271
-30 -40 -95 -125 -145 -188 -193 -248 -198 -255 -192 -305 4 -40 12 -52 65
-100 l60 -55 -54 -75 c-30 -41 -67 -93 -82 -115 -15 -22 -65 -93 -112 -159
-47 -65 -103 -144 -125 -176 -78 -112 -453 -642 -665 -940 -63 -89 -126 -178
-140 -198 -14 -20 -64 -91 -111 -157 -47 -66 -103 -145 -124 -175 -22 -30 -74
-104 -117 -165 -44 -60 -94 -132 -113 -160 -57 -82 -96 -137 -180 -255 -44
-62 -93 -132 -110 -156 -16 -24 -82 -116 -145 -205 -63 -89 -126 -178 -140
-198 -14 -20 -70 -99 -125 -176 -55 -77 -111 -156 -125 -176 -14 -20 -77 -109
-140 -199 -63 -89 -128 -182 -145 -205 -16 -24 -66 -94 -110 -156 -44 -62 -96
-135 -115 -163 -40 -57 -71 -101 -182 -256 -41 -58 -92 -130 -113 -160 -121
-171 -279 -394 -378 -533 -61 -87 -123 -175 -137 -195 -14 -20 -70 -100 -125
-177 -55 -77 -111 -156 -125 -176 -127 -181 -253 -358 -267 -377 l-18 -22 -50
31 c-303 192 -654 321 -1040 381 -202 31 -588 31 -790 0 -588 -92 -1103 -348
-1493 -744 -96 -98 -68 -94 -277 -39 -66 17 -138 35 -160 41 -22 5 -96 24
-165 41 -69 17 -154 38 -190 46 -36 7 -87 20 -115 28 -63 18 -315 82 -415 105
-41 9 -95 22 -120 29 -201 52 -335 86 -390 98 -36 7 -87 20 -115 28 -27 8
-106 28 -175 45 -69 16 -143 35 -165 40 -250 64 -332 85 -403 101 -45 10 -87
21 -92 24 -6 4 -31 10 -58 14 -26 5 -146 34 -267 66 -121 31 -240 61 -264 66
-24 5 -89 21 -145 35 -55 14 -126 32 -156 39 -55 12 -141 34 -235 60 -27 7
-66 16 -85 20 -19 4 -73 17 -120 30 -47 13 -125 33 -175 45 -49 11 -115 27
-145 35 -169 42 -270 67 -400 101 -80 20 -164 40 -187 45 -23 4 -75 17 -115
28 -103 29 -351 91 -428 108 -36 7 -87 20 -115 28 -106 29 -141 38 -180 46
-22 4 -139 33 -260 64 -121 31 -238 60 -260 65 -22 4 -139 33 -260 65 -121 31
-240 61 -265 65 -25 5 -74 17 -110 28 -36 11 -99 27 -140 36 -41 9 -112 26
-156 38 l-82 22 20 55 c24 69 13 119 -32 151 -29 21 -184 71 -403 131 -59 16
-199 58 -312 94 -174 56 -208 63 -232 54 -48 -18 -83 -60 -99 -119 -9 -30 -24
-82 -34 -115 -10 -33 -28 -94 -40 -135 -13 -41 -35 -115 -50 -165 -16 -49 -30
-99 -33 -110 -3 -11 -21 -76 -41 -145 -41 -143 -43 -163 -16 -207 17 -29 34
-36 177 -82 87 -27 194 -60 238 -71 44 -12 182 -53 307 -91 135 -41 234 -66
245 -62 53 19 83 56 103 124 12 38 22 69 24 69 2 0 111 -27 242 -61 132 -33
267 -67 302 -74 34 -8 106 -26 160 -41 53 -14 117 -30 142 -35 25 -4 61 -13
80 -19 19 -6 53 -15 75 -19 22 -5 103 -25 180 -46 77 -20 158 -41 180 -45 48
-9 293 -70 420 -104 50 -13 128 -33 175 -44 101 -24 227 -55 330 -82 116 -30
562 -142 590 -147 14 -3 86 -21 160 -40 74 -20 155 -39 179 -44 24 -5 73 -17
110 -28 36 -10 100 -26 141 -35 41 -9 116 -28 165 -41 50 -13 185 -47 300 -75
116 -28 233 -58 260 -65 28 -8 199 -51 380 -95 182 -44 371 -91 420 -104 108
-29 217 -56 265 -66 50 -11 151 -37 255 -65 50 -13 133 -34 185 -45 52 -12
118 -27 145 -35 83 -23 275 -72 355 -90 41 -10 107 -25 145 -35 140 -36 273
-70 395 -100 69 -17 139 -35 155 -39 17 -5 65 -17 108 -26 l78 -17 -20 -31
c-64 -105 -178 -410 -222 -591 l-24 -99 -150 7 c-998 43 -1573 57 -2645 63
-3033 17 -5980 -153 -8840 -512 -766 -96 -1816 -254 -2140 -321 -285 -60 -582
-179 -785 -316 -474 -320 -740 -773 -819 -1398 -2 -19 2 -156 10 -305 7 -148
27 -531 44 -850 16 -319 55 -1052 85 -1630 30 -577 69 -1311 85 -1630 17 -319
42 -796 55 -1060 14 -264 34 -649 45 -855 11 -206 33 -638 50 -960 17 -322 39
-754 50 -960 11 -206 33 -638 50 -960 17 -322 39 -751 50 -955 11 -203 33
-633 50 -955 17 -322 44 -841 60 -1155 17 -313 41 -786 55 -1050 34 -672 35
-681 52 -765 40 -204 120 -361 256 -506 145 -156 340 -266 579 -328 90 -24
114 -25 758 -41 366 -9 684 -18 707 -21 40 -5 43 -7 53 -47 6 -23 26 -96 45
-162 19 -66 55 -194 80 -285 26 -91 56 -181 67 -200 34 -58 109 -129 173 -165
123 -69 25 -65 1656 -65 l1474 0 98 34 c120 42 175 74 219 126 47 54 60 102
114 400 25 140 46 255 47 255 1 1 286 -7 632 -16 587 -16 958 -27 2325 -64
294 -8 954 -26 1465 -40 512 -14 1256 -34 1655 -45 399 -11 1060 -29 1470 -40
410 -11 1074 -29 1475 -40 402 -11 978 -27 1280 -35 1158 -32 1310 -37 1315
-46 3 -5 25 -118 49 -251 49 -277 62 -324 109 -379 44 -51 99 -83 219 -125
l98 -34 1474 0 c1631 0 1533 -4 1656 65 64 36 138 107 173 165 11 19 44 118
72 220 28 102 55 196 59 210 10 34 7 34 616 16 548 -15 533 -16 716 33 260 70
513 181 659 289 117 87 227 219 279 335 44 97 51 128 61 272 5 72 25 267 44
435 19 168 49 424 66 570 17 146 44 384 60 530 16 146 43 384 60 530 17 146
42 362 55 480 14 118 39 334 55 480 35 314 79 701 115 1005 14 121 39 339 55
485 16 146 43 384 60 530 29 251 50 436 120 1050 17 146 39 344 50 440 11 96
26 234 35 305 8 72 24 209 35 305 11 96 33 294 50 440 17 146 39 344 50 440
11 96 26 234 35 305 8 72 24 209 35 305 11 96 33 294 50 440 17 146 46 402 65
570 19 168 43 385 55 483 28 242 74 647 110 967 16 146 36 324 45 395 28 241
84 727 125 1095 16 146 36 324 45 395 76 649 85 740 85 905 0 257 -19 379 -92
610 -120 375 -350 708 -678 979 -300 249 -393 282 -1345 482 -241 51 -847 173
-985 199 -910 169 -1543 275 -2372 395 -130 19 -248 35 -261 35 -24 0 -25 3
-31 103 -40 589 -251 1126 -616 1561 -50 59 -89 113 -87 120 3 6 55 81 115
166 61 85 157 220 214 300 57 80 115 163 130 185 39 56 81 116 173 245 44 61
94 131 110 155 17 23 66 94 110 156 44 62 96 135 115 163 40 57 71 101 182
256 41 58 92 130 113 160 50 70 233 329 378 533 61 88 128 182 148 210 19 29
85 122 146 207 226 318 338 476 372 527 20 28 87 122 148 210 62 87 163 230
226 318 171 242 178 252 259 365 99 140 145 205 188 266 19 28 71 102 115 163
44 62 94 132 110 156 17 23 66 94 110 156 44 62 96 135 115 163 70 99 114 162
154 216 22 30 54 75 71 100 17 25 49 70 70 101 97 136 273 384 300 424 17 23
59 83 94 133 l63 90 47 -32 c62 -44 75 -48 127 -35 45 12 56 24 254 285 19 26
49 65 67 88 18 22 70 91 117 151 47 61 107 139 135 175 39 51 51 73 51 102 0
59 -13 80 -95 143 -98 75 -217 168 -274 214 -24 19 -69 54 -100 77 -31 23 -87
67 -126 98 -143 113 -174 127 -231 102z m141 -345 c28 -20 52 -39 53 -44 2 -4
30 -26 63 -48 32 -22 67 -48 76 -58 10 -10 38 -32 63 -48 25 -17 60 -45 79
-62 19 -17 38 -31 43 -31 13 0 9 -27 -7 -40 -8 -7 -54 -64 -102 -129 -49 -64
-93 -120 -99 -126 -6 -5 -36 -44 -67 -85 -31 -41 -65 -85 -76 -98 l-20 -23
-58 41 c-32 22 -89 66 -128 96 -38 30 -101 79 -140 109 -38 30 -86 67 -105 84
l-35 30 31 33 c17 18 51 60 75 92 24 33 58 76 74 97 17 21 53 68 80 105 74 99
126 155 139 147 6 -3 34 -22 61 -42z m-324 -861 c5 0 -6 -20 -24 -44 -32 -44
-179 -250 -252 -356 -74 -106 -448 -634 -665 -940 -63 -89 -126 -178 -140
-198 -14 -20 -64 -91 -111 -157 -47 -66 -103 -145 -124 -175 -22 -30 -74 -104
-117 -165 -44 -60 -94 -132 -113 -160 -57 -82 -96 -137 -180 -255 -44 -62 -93
-132 -110 -156 -16 -24 -82 -116 -145 -205 -63 -89 -126 -178 -140 -198 -14
-20 -70 -99 -125 -176 -55 -77 -111 -156 -125 -176 -14 -20 -77 -109 -140
-199 -63 -89 -128 -182 -145 -205 -16 -24 -66 -94 -110 -156 -44 -62 -96 -135
-115 -163 -40 -57 -71 -101 -182 -256 -41 -58 -92 -130 -113 -160 -121 -171
-279 -394 -378 -533 -61 -87 -123 -175 -137 -195 -14 -20 -70 -100 -125 -177
-55 -77 -111 -156 -125 -176 -143 -205 -239 -341 -265 -375 -16 -23 -46 -65
-65 -92 -19 -28 -37 -51 -40 -52 -3 0 -27 18 -53 39 l-47 39 58 81 c31 44 104
147 162 228 58 81 117 166 132 188 39 56 81 116 173 245 44 61 94 131 110 155
17 23 66 94 110 156 44 62 96 135 115 163 40 57 71 101 182 256 41 58 92 130
113 160 50 70 233 329 378 533 61 88 128 182 148 210 19 29 87 124 149 212
241 339 335 472 369 522 20 28 87 122 148 210 62 87 163 230 226 318 171 242
178 252 259 365 99 140 145 205 188 266 19 28 71 102 115 163 44 62 94 132
110 156 17 23 66 94 110 156 44 62 96 135 115 163 70 99 114 162 154 216 22
30 54 75 71 100 17 25 49 70 70 101 99 138 273 384 300 424 17 23 66 93 110
155 44 61 93 132 108 156 l29 44 45 -40 c25 -22 50 -40 54 -40z m-16146 -4289
c39 -11 113 -32 165 -47 165 -45 340 -105 340 -117 0 -7 -6 -32 -14 -57 -8
-25 -24 -76 -35 -115 -25 -85 -62 -205 -92 -301 l-22 -72 -31 10 c-17 5 -51
14 -76 20 -25 5 -121 33 -215 62 -93 29 -192 60 -220 68 -60 17 -60 8 -5 193
10 33 32 110 50 170 17 61 38 125 46 143 8 18 14 42 14 53 0 13 5 19 13 16 6
-2 44 -14 82 -26z m815 -456 c36 -9 97 -25 135 -35 39 -10 149 -37 245 -60 96
-23 213 -52 260 -65 47 -13 164 -42 260 -65 96 -23 207 -50 245 -60 39 -10 93
-24 120 -30 28 -7 73 -18 100 -25 153 -41 320 -82 405 -101 36 -7 88 -20 115
-28 104 -30 142 -39 200 -51 33 -7 150 -36 260 -65 110 -29 222 -56 249 -61
26 -4 69 -15 95 -23 25 -8 57 -16 71 -19 14 -3 88 -21 165 -42 77 -20 158 -41
180 -45 22 -5 94 -23 160 -40 66 -18 141 -36 167 -40 26 -5 71 -16 100 -24 50
-14 279 -73 378 -97 103 -25 208 -51 255 -64 28 -7 66 -16 85 -20 19 -4 73
-17 120 -30 47 -13 119 -31 160 -40 41 -9 107 -25 145 -35 100 -28 230 -60
300 -75 33 -7 105 -25 160 -40 55 -15 129 -34 165 -41 36 -8 88 -21 115 -29
47 -14 165 -42 209 -51 11 -2 52 -13 91 -24 84 -23 334 -86 425 -106 35 -7 80
-19 100 -26 19 -6 62 -17 95 -23 33 -7 105 -25 160 -40 55 -15 118 -31 140
-34 22 -4 74 -17 115 -29 78 -22 188 -49 253 -62 21 -4 40 -10 42 -12 3 -3
-13 -30 -36 -62 -46 -64 -45 -64 -174 -26 -33 10 -78 21 -100 25 -22 3 -69 14
-105 25 -115 33 -154 43 -215 55 -33 7 -150 36 -260 65 -110 29 -222 56 -249
61 -26 4 -69 15 -95 23 -25 8 -57 16 -71 19 -28 5 -159 38 -265 67 -38 10
-108 28 -155 38 -93 22 -214 52 -330 82 -142 36 -355 90 -400 101 -103 25
-208 51 -255 64 -27 7 -66 16 -85 20 -19 3 -73 17 -120 30 -47 12 -119 30
-160 40 -41 9 -109 25 -150 36 -41 11 -91 24 -110 29 -19 5 -55 14 -80 21 -25
6 -72 17 -105 24 -33 7 -105 25 -160 40 -55 15 -129 34 -165 41 -36 8 -87 21
-115 29 -27 8 -90 24 -140 35 -49 11 -121 29 -160 40 -96 27 -351 90 -400 100
-37 7 -165 38 -310 76 -33 8 -90 24 -126 35 -36 10 -74 19 -84 19 -11 0 -55
11 -99 24 -45 13 -99 27 -121 31 -39 6 -77 16 -215 55 -36 10 -83 21 -105 25
-22 3 -67 14 -100 24 -33 11 -96 26 -140 36 -44 9 -109 25 -145 35 -36 10 -90
23 -120 30 -54 12 -73 17 -230 59 -41 11 -95 24 -120 29 -46 10 -116 27 -255
63 -140 36 -188 48 -256 63 -116 27 -119 29 -108 74 18 81 25 92 56 83 15 -5
57 -16 93 -26z m11400 -5300 c654 -49 1238 -97 1610 -130 840 -75 1633 -150
1855 -175 50 -5 225 -24 390 -40 165 -17 392 -41 505 -53 l205 -22 -3 -50 c-2
-47 -10 -127 -62 -677 -61 -644 -77 -806 -140 -1463 -49 -514 -74 -771 -100
-1045 -11 -115 -29 -304 -40 -420 -43 -455 -61 -643 -80 -835 -11 -110 -29
-297 -40 -415 -38 -397 -59 -624 -80 -837 -11 -117 -29 -309 -40 -425 -11
-117 -29 -303 -40 -413 -11 -110 -29 -296 -40 -412 -11 -117 -29 -307 -40
-423 -11 -115 -29 -304 -40 -420 -11 -115 -29 -306 -40 -422 -11 -117 -29
-303 -40 -413 -19 -192 -37 -380 -80 -835 -63 -666 -84 -886 -140 -1465 -49
-514 -74 -771 -100 -1045 -11 -115 -29 -304 -40 -420 -11 -115 -29 -306 -40
-422 -11 -117 -27 -278 -35 -358 -8 -80 -17 -185 -21 -233 -5 -61 -11 -90 -21
-94 -7 -3 -93 0 -191 6 -1008 63 -2532 146 -3734 204 -142 7 -259 15 -261 17
-2 3 0 120 4 260 5 140 27 869 49 1620 22 751 56 1871 75 2490 18 619 88 2977
155 5240 67 2263 124 4125 126 4138 3 16 11 22 32 22 15 0 232 -16 482 -35z
m-14340 -929 c14 -3 61 -8 105 -11 71 -5 160 -14 304 -31 209 -24 315 -50 414
-100 68 -35 97 -69 97 -112 0 -87 -207 -209 -525 -312 -203 -65 -378 -154
-620 -315 -266 -176 -534 -408 -659 -568 -453 -581 -938 -1718 -1240 -2909
-65 -253 -79 -296 -121 -375 -107 -195 -208 -324 -287 -364 -123 -63 -226 24
-301 256 -59 179 -62 224 -72 1135 -3 272 -8 556 -10 630 -13 429 -16 1254 -5
1365 58 597 305 1045 737 1336 152 103 481 241 629 265 54 9 63 11 67 14 1 1
11 3 21 5 11 2 51 10 90 19 73 15 111 21 181 31 22 3 49 7 60 10 11 2 54 7 95
10 41 4 86 8 100 11 14 2 86 7 160 10 74 4 137 8 139 10 6 6 612 -4 641 -10z"/>
<path d="M28425 16875 c-288 -46 -578 -163 -805 -323 -124 -87 -364 -327 -453
-452 -138 -195 -258 -479 -309 -731 -20 -101 -23 -143 -23 -359 0 -216 3 -258
23 -359 51 -252 171 -536 309 -731 88 -124 329 -365 453 -453 195 -138 479
-258 731 -309 101 -20 143 -23 359 -23 216 0 258 3 359 23 252 51 536 171 731
309 124 88 365 329 453 453 138 195 258 479 309 731 20 101 23 143 23 359 0
216 -3 258 -23 359 -51 252 -171 536 -309 731 -88 124 -329 365 -453 453 -193
137 -478 257 -726 308 -141 29 -507 36 -649 14z"/>
<path d="M28085 12586 c-212 -37 -336 -75 -520 -159 -248 -113 -502 -318 -671
-542 -144 -192 -291 -481 -336 -660 -32 -132 -40 -170 -52 -265 -18 -132 -13
-423 8 -537 78 -423 259 -772 544 -1050 130 -128 214 -188 445 -319 93 -53
246 -121 293 -130 19 -3 36 -10 39 -14 3 -5 24 -11 48 -15 23 -4 65 -13 92
-21 191 -52 625 -55 795 -5 19 6 64 18 99 27 111 27 139 37 296 104 154 67
250 126 411 256 112 92 210 193 300 310 64 84 234 371 234 395 0 8 6 23 13 34
7 11 19 40 27 65 7 25 16 50 20 55 4 6 12 30 19 55 7 25 19 68 26 95 16 58 20
78 41 240 18 140 14 379 -10 515 -96 557 -409 1024 -866 1296 -134 80 -251
144 -264 144 -6 0 -20 6 -31 13 -11 7 -38 18 -60 25 -22 8 -49 17 -60 23 -25
11 -127 36 -220 54 -38 7 -86 16 -105 20 -19 3 -123 8 -230 10 -170 4 -212 1
-325 -19z"/>
<path d="M26444 8334 c-58 -38 -73 -73 -76 -179 -2 -102 4 -119 59 -162 l38
-30 1719 -107 c945 -60 1739 -106 1763 -103 84 9 122 74 123 206 0 95 -19 140
-72 167 -23 12 -388 38 -1766 125 -955 60 -1739 109 -1742 109 -4 0 -24 -12
-46 -26z"/>
<path d="M26414 7835 c-54 -32 -72 -72 -78 -175 -5 -98 4 -123 61 -167 l38
-29 1744 -109 1743 -109 37 21 c60 35 75 71 76 187 0 91 -2 104 -24 132 -12
18 -35 37 -50 44 -17 8 -635 51 -1746 121 -946 60 -1729 109 -1740 109 -11 0
-38 -11 -61 -25z"/>
<path d="M26394 7345 c-62 -27 -80 -62 -88 -169 -7 -111 1 -138 60 -183 l36
-27 1707 -108 c938 -60 1730 -106 1759 -104 56 5 101 33 121 74 6 12 13 64 17
115 6 89 5 94 -22 134 -15 23 -39 47 -53 53 -17 8 -634 51 -1736 121 -940 60
-1723 108 -1740 108 -16 0 -44 -7 -61 -14z"/>
<path d="M26374 6852 c-27 -9 -68 -43 -81 -67 -6 -11 -14 -63 -18 -115 -6 -89
-5 -97 17 -129 12 -19 35 -43 50 -54 25 -18 143 -27 1760 -129 1903 -120 1781
-117 1837 -52 25 28 29 42 36 127 5 76 4 101 -9 125 -21 41 -70 80 -109 86
-38 6 -3412 217 -3442 215 -11 0 -29 -4 -41 -7z"/>
<path d="M26309 6316 c-50 -34 -64 -74 -64 -186 0 -84 3 -99 24 -126 12 -18
35 -37 50 -44 17 -8 638 -51 1761 -122 1689 -106 1736 -108 1774 -91 61 27 83
72 89 178 6 104 -2 127 -60 172 l-38 29 -1720 107 c-946 59 -1734 108 -1750
107 -17 0 -46 -11 -66 -24z"/>
<path d="M26295 5831 c-55 -23 -85 -93 -85 -202 0 -93 20 -138 72 -165 41 -21
3490 -240 3528 -224 74 32 98 76 101 191 3 106 -2 123 -58 166 l-38 30 -1710
107 c-940 58 -1728 106 -1750 106 -22 -1 -49 -5 -60 -9z"/>
</g>
</svg>
